<?xml version="1.0" encoding="utf-8"?>
<!-- Generator: Adobe Illustrator 19.0.0, SVG Export Plug-In . SVG Version: 6.00 Build 0)  -->
<svg version="1.1" id="层_1" xmlns="http://www.w3.org/2000/svg" xmlns:xlink="http://www.w3.org/1999/xlink" x="0px" y="0px"
	 viewBox="0 0 30 12.1" style="enable-background:new 0 0 30 12.1;" xml:space="preserve">
<style type="text/css">
	.st0{fill:none;}
	.st1{fill:#E62210;}
	.st2{fill-rule:evenodd;clip-rule:evenodd;fill:#221815;}
	.st3{fill:#221815;}
</style>
<g>
	<g>
		<rect x="0" y="0.2" class="st0" width="29.9" height="11.7"/>
		<path class="st1" d="M14.7,8.5H10V8.3c0.8-0.1,1-0.3,1-0.9V4.1c0-0.7-0.1-0.9-0.8-1V2.9h4.3l0.2,1.3l-0.2,0.1
			c-0.4-0.8-0.7-0.9-1.5-1l-1,0v2.2l0.8,0c0.6,0,0.8-0.2,0.9-0.8h0.2v2.1h-0.2c-0.2-0.6-0.4-0.8-0.9-0.8l-0.8,0v1.6
			C11.9,8,12,8.1,13,8.1c0.9,0,1.3-0.2,1.8-1.1L15,7.1L14.7,8.5z"/>
		<path class="st1" d="M24.3,8.5V8.3c0.4-0.1,0.5-0.2,0.5-0.6V7.6L24.5,4l-2.1,4.8L20.4,4l-0.3,2.8c0,0.2,0,0.4,0,0.6
			c0,0.5,0.2,0.7,0.9,0.8v0.2h-2.4V8.3c0.6-0.1,0.9-0.3,0.9-0.9l0.5-2.9C19.9,4.1,20,3.8,20,3.7c0-0.4-0.2-0.5-0.8-0.5V2.9h1.7
			l1.8,4l1.8-4h1.7v0.2c-0.6,0-0.8,0.2-0.8,0.5c0,0.1,0,0.1,0,0.2l0.4,3.8c0,0.4,0.2,0.5,0.6,0.6v0.2H24.3z"/>
		<path class="st2" d="M29.3,9.9c-0.1-0.1-0.1-0.1-0.4-0.1h-0.6v0.7H29c0.2,0,0.3,0,0.4-0.1c0.1-0.1,0.1-0.2,0.1-0.3
			C29.5,10.1,29.4,10,29.3,9.9z M29,10.9h-0.5v0.9H28V9.6h1c0.5,0,0.8,0.2,0.8,0.6c0,0.4-0.2,0.6-0.5,0.7C29.2,10.9,29,10.9,29,10.9
			z"/>
		<path class="st3" d="M19.9,11.8c-0.2,0-0.5,0.1-0.7,0.1c-0.8,0-1.3-0.5-1.3-1.2c0-0.7,0.6-1.2,1.3-1.2c0.2,0,0.4,0,0.5,0.1
			c0.1,0,0.2,0.1,0.3,0.1L19.9,10c-0.1,0-0.1-0.1-0.2-0.1c-0.1-0.1-0.4-0.1-0.5-0.1c-0.5,0-0.9,0.4-0.9,0.9c0,0.5,0.4,0.9,1,0.9
			c0.1,0,0.2,0,0.4,0v-0.4h-0.3v-0.3h0.3H20v0.3v0.6C20,11.8,19.9,11.8,19.9,11.8z"/>
		<path class="st2" d="M21.9,9.9c-0.1-0.1-0.1-0.1-0.4-0.1h-0.6v0.7h0.6c0.2,0,0.3,0,0.4-0.1c0.1-0.1,0.1-0.2,0.1-0.3
			C22,10.1,22,10,21.9,9.9z M22.1,11.8l-0.6-0.9h-0.5v0.9h-0.4V9.6h1c0.5,0,0.8,0.2,0.8,0.6c0,0.4-0.2,0.6-0.5,0.7l0.6,1H22.1z"/>
		<path class="st2" d="M24,9.8c-0.5,0-0.9,0.4-0.9,0.9c0,0.5,0.4,0.9,0.9,0.9s0.9-0.4,0.9-0.9C24.8,10.2,24.5,9.8,24,9.8z M24,11.9
			c-0.7,0-1.3-0.5-1.3-1.2c0-0.7,0.5-1.2,1.3-1.2c0.7,0,1.3,0.5,1.3,1.2C25.2,11.4,24.7,11.9,24,11.9z"/>
		<path class="st3" d="M27.2,11.7c-0.2,0.1-0.4,0.2-0.6,0.2s-0.5-0.1-0.6-0.2c-0.2-0.1-0.3-0.4-0.3-0.8V9.6H26V11
			c0,0.4,0.2,0.6,0.6,0.6s0.6-0.2,0.6-0.6V9.6h0.4v1.3C27.5,11.4,27.5,11.6,27.2,11.7z"/>
	</g>
	<g>
		<rect x="0.3" y="0.3" class="st0" width="29.6" height="11.6"/>
		<path class="st1" d="M15,10.4c1.2-0.6,1.7-1.4,1.7-2.3l0-4c0-0.6-0.2-0.8-1-0.9V3h2.8v0.3c-0.7,0.1-0.9,0.2-0.9,0.9l-0.1,3.7
			c0,1.7-0.9,2.6-2.4,2.8L15,10.4z"/>
		<path class="st1" d="M9.8,3C8.6,0.7,5.9-0.3,3.5,0.6c-2.6,1-3.9,3.9-2.9,6.5c1,2.6,3.9,3.9,6.5,2.9c0,0,0,0,0,0V9.8
			c-2.3,0.9-5-0.3-5.9-2.6C0.5,4.9,1.6,2.2,4,1.3c2-0.8,4.2,0,5.4,1.7H7.2v0.2c0.8,0.1,1,0.3,1,1l0.1,3.1L4.6,3H3.1v0.2
			c0.8,0.2,1,0.5,1,1.4L3.9,7.4c0,0.7-0.2,0.9-1,0.9v0.2h2.8V8.3C4.9,8.3,4.6,8,4.6,7.4L4.6,4.2l3.8,4.5l0.4-0.3l0.1-4.2
			c0-0.6,0.2-0.8,0.9-1L9.8,3L9.8,3z"/>
	</g>
</g>
</svg>
