<?xml version="1.0" encoding="utf-8"?>
<!-- Generator: Adobe Illustrator 19.0.0, SVG Export Plug-In . SVG Version: 6.00 Build 0)  -->
<svg version="1.1" id="图层_1" xmlns="http://www.w3.org/2000/svg" xmlns:xlink="http://www.w3.org/1999/xlink" x="0px" y="0px"
	 viewBox="0 0 30 8.4" style="enable-background:new 0 0 30 8.4;" xml:space="preserve">
<style type="text/css">
	.st0{fill:#FFFFFF;}
</style>
<g id="XMLID_1_">
	<path id="XMLID_23_" class="st0" d="M4.7,7.6C4.5,8.1,3.9,8.2,3.4,8.3V7.7c0.6,0,0.8-0.4,0.8-0.8V4.2h0.6v3.1
		C4.7,7.4,4.7,7.5,4.7,7.6"/>
	<path id="XMLID_20_" class="st0" d="M6.3,5.4c-0.3,0-0.5,0.3-0.5,0.7c0,0.4,0.2,0.7,0.5,0.7c0.3,0,0.5-0.3,0.5-0.7
		C6.8,5.8,6.6,5.4,6.3,5.4 M6.3,7.3c-0.6,0-1.1-0.5-1.1-1.1C5.3,5.5,5.7,5,6.3,5c0.6,0,1.1,0.5,1.1,1.1C7.4,6.8,6.9,7.3,6.3,7.3"/>
	<path id="XMLID_19_" class="st0" d="M9.1,7.2V6.9C8.9,7.1,8.7,7.2,8.4,7.2C8,7.2,7.8,7.1,7.8,6.6V5.1h0.6v1.4c0,0.3,0,0.4,0.2,0.4
		c0.1,0,0.3-0.1,0.5-0.4l0.1-0.1V5.1h0.6v2.1H9.1z"/>
	<path id="XMLID_18_" class="st0" d="M11.4,5.7c-0.1,0-0.1-0.1-0.2-0.1c-0.1,0-0.2,0.1-0.3,0.2c-0.1,0.1-0.1,0.2-0.1,0.4v1h-0.5V5.1
		h0.5l0,0.5C11,5.2,11.1,5,11.3,5c0.1,0,0.2,0,0.3,0.2L11.4,5.7z"/>
	<path id="XMLID_17_" class="st0" d="M13.2,7.2V5.8c0-0.3,0-0.4-0.2-0.4c-0.1,0-0.3,0.1-0.5,0.4l-0.1,0.1v1.3h-0.6V5.1h0.6v0.4
		C12.7,5.1,12.9,5,13.1,5c0.4,0,0.6,0.2,0.6,0.6v1.6H13.2z"/>
	<path id="XMLID_14_" class="st0" d="M15.3,6.3l-0.5,0.2c0,0.1,0,0.1,0,0.2c0,0.1,0.1,0.2,0.2,0.2c0.1,0,0.2,0,0.2-0.1
		c0,0,0.1,0,0.1-0.1V6.3z M16,7.2h-0.1c-0.3,0-0.4,0-0.5-0.2c-0.2,0.2-0.4,0.3-0.6,0.3c-0.4,0-0.6-0.2-0.6-0.6c0-0.1,0-0.1,0-0.2
		c0.1-0.2,0.2-0.3,0.5-0.4l0.6-0.2V5.7c0-0.2-0.1-0.3-0.3-0.3c-0.2,0-0.3,0.1-0.3,0.2c0,0,0,0,0,0.1l-0.5,0.1c0-0.1,0-0.1,0-0.1
		c0-0.4,0.3-0.6,0.9-0.6c0.5,0,0.7,0.2,0.7,0.7v0.9c0,0.2,0,0.2,0.2,0.2L16,7.2z"/>
	<rect id="XMLID_13_" x="16.5" y="3.9" class="st0" width="0.5" height="3.4"/>
	<polygon id="XMLID_12_" class="st0" points="21.3,7.3 20.9,7.3 20.5,6 20,7.3 19.6,7.3 18.5,4.2 19.1,4.2 19.8,6.5 20.2,5.4 
		19.7,4.2 20.2,4.2 20.5,4.8 20.7,4.2 21.2,4.2 20.7,5.4 21.1,6.4 21.9,4.2 22.4,4.2 	"/>
	<path id="XMLID_9_" class="st0" d="M23.4,6.3l-0.5,0.2c0,0.1,0,0.1,0,0.2c0,0.1,0.1,0.2,0.2,0.2c0.1,0,0.2,0,0.2-0.1
		c0,0,0.1,0,0.1-0.1V6.3z M24,7.2h-0.1c-0.3,0-0.4,0-0.5-0.2c-0.2,0.2-0.4,0.3-0.6,0.3c-0.4,0-0.6-0.2-0.6-0.6c0-0.1,0-0.1,0-0.2
		c0.1-0.2,0.2-0.3,0.5-0.4l0.6-0.2V5.7c0-0.2-0.1-0.3-0.3-0.3c-0.2,0-0.3,0.1-0.3,0.2c0,0,0,0,0,0.1l-0.5,0.1c0-0.1,0-0.1,0-0.1
		c0-0.4,0.3-0.6,0.9-0.6C23.7,5,24,5.2,24,5.7v0.9c0,0.2,0,0.2,0.2,0.2L24,7.2z"/>
	<path id="XMLID_8_" class="st0" d="M25.5,7.1c-0.2,0.1-0.3,0.1-0.5,0.1c-0.3,0-0.4-0.1-0.4-0.5V5.5h-0.3V5.1l0.3-0.1V4.4h0.5v0.6
		h0.5v0.4h-0.5v1c0,0.2,0,0.3,0.1,0.3c0.1,0,0.1,0,0.3-0.1L25.7,7C25.6,7.1,25.5,7.1,25.5,7.1"/>
	<path id="XMLID_7_" class="st0" d="M27.5,7.1c-0.2,0.1-0.4,0.1-0.6,0.1c-0.7,0-1.1-0.4-1.1-1.1c0-0.7,0.5-1.2,1.1-1.2
		c0.1,0,0.2,0,0.3,0c0.2,0,0.2,0.1,0.4,0.2l-0.3,0.4c-0.2-0.1-0.3-0.2-0.4-0.2c-0.4,0-0.6,0.3-0.6,0.7c0,0.4,0.2,0.6,0.6,0.6
		c0.2,0,0.3,0,0.6-0.2l0.2,0.4C27.6,7.1,27.5,7.1,27.5,7.1"/>
	<path id="XMLID_6_" class="st0" d="M29.3,7.2V5.8c0-0.3,0-0.4-0.2-0.4c-0.1,0-0.3,0.1-0.5,0.4l-0.1,0.1v1.3H28V3.9h0.6v1.6
		C28.8,5.1,29,5,29.3,5c0.4,0,0.6,0.2,0.6,0.6v1.6H29.3z"/>
	<path id="XMLID_5_" class="st0" d="M5.6,3.2H3.8V3.2c0.3,0,0.4-0.1,0.4-0.3V1.6c0-0.3,0-0.3-0.3-0.4V1.2h1.6l0.1,0.5l-0.1,0
		C5.3,1.4,5.2,1.3,4.9,1.3l-0.4,0v0.8l0.3,0c0.2,0,0.3-0.1,0.3-0.3h0.1v0.8H5.2C5.1,2.3,5,2.2,4.8,2.2l-0.3,0v0.6
		c0,0.3,0,0.3,0.4,0.3c0.3,0,0.5-0.1,0.7-0.4l0.1,0L5.6,3.2z"/>
	<path id="XMLID_4_" class="st0" d="M9.1,3.2L9.1,3.2c0.2-0.1,0.2-0.2,0.2-0.3v0L9.2,1.6L8.4,3.3L7.7,1.6l-0.1,1c0,0.1,0,0.2,0,0.2
		c0,0.2,0.1,0.3,0.3,0.3v0.1H7V3.1C7.2,3.1,7.3,3,7.3,2.8l0.2-1.1c0-0.2,0-0.3,0-0.3c0-0.1-0.1-0.2-0.3-0.2V1.2h0.6l0.7,1.5l0.7-1.5
		h0.6v0.1c-0.2,0-0.3,0.1-0.3,0.2c0,0,0,0.1,0,0.1l0.1,1.4c0,0.1,0.1,0.2,0.2,0.2v0.1H9.1z"/>
	<path id="XMLID_3_" class="st0" d="M5.6,3.9c0.5-0.2,0.6-0.5,0.6-0.9l0-1.5c0-0.2-0.1-0.3-0.4-0.3V1.2h1.1v0.1
		c-0.3,0-0.3,0.1-0.3,0.3l0,1.4C6.6,3.6,6.2,3.9,5.6,3.9L5.6,3.9z"/>
	<path id="XMLID_2_" class="st0" d="M3.7,1.2C3.2,0.3,2.2-0.1,1.3,0.3c-1,0.4-1.5,1.5-1.1,2.4c0.4,1,1.5,1.5,2.4,1.1c0,0,0,0,0,0
		V3.7c-0.9,0.3-1.9-0.1-2.2-1c-0.3-0.9,0.1-1.9,1-2.2c0.8-0.3,1.6,0,2,0.6H2.7v0.1c0.3,0,0.4,0.1,0.4,0.4l0,1.2L1.7,1.2H1.2v0.1
		c0.3,0.1,0.4,0.2,0.4,0.5l0,1c0,0.2-0.1,0.3-0.4,0.3v0.1h1V3.1C1.8,3.1,1.7,3,1.7,2.8l0-1.2l1.4,1.7l0.1-0.1l0.1-1.6
		C3.3,1.4,3.4,1.3,3.7,1.2L3.7,1.2L3.7,1.2z"/>
</g>
</svg>
