<?xml version="1.0" encoding="utf-8"?>
<!-- Generator: Adobe Illustrator 19.0.0, SVG Export Plug-In . SVG Version: 6.00 Build 0)  -->
<svg version="1.1" id="图层_1" xmlns="http://www.w3.org/2000/svg" xmlns:xlink="http://www.w3.org/1999/xlink" x="0px" y="0px"
	 viewBox="-242 436.4 173.8 19.6" style="enable-background:new -242 436.4 173.8 19.6;" xml:space="preserve">
<style type="text/css">
	.st0{fill:#FFFFFF;}
</style>
<g>
	<path class="st0" d="M-230.7,442.5C-230.7,442.5-230.8,442.5-230.7,442.5c0-0.1,0-0.1,0-0.1h0.2c0,0,0.1,0,0.1,0.1v0.7
		c0,0.1,0,0.1,0,0.1h0.1l0,0h-0.3h-0.1c0,0,0,0,0.1,0l0.1-0.1L-230.7,442.5L-230.7,442.5"/>
	<path class="st0" d="M-229.5,442.5C-229.6,442.5-229.6,442.5-229.5,442.5c0-0.1,0-0.1,0-0.1h0.2c0.1,0,0.1,0,0.1,0.1v0.7
		c0,0.1,0,0.1,0.1,0.1h0.1c0,0,0,0-0.1,0h-0.3h-0.1c0,0,0,0,0.1,0l0.1-0.1L-229.5,442.5L-229.5,442.5"/>
	<path class="st0" d="M-231.7,446.4C-231.7,446.4-231.8,446.4-231.7,446.4C-231.8,446.3-231.7,446.3-231.7,446.4
		c0.1-0.1,0.1-0.2,0.1-0.3c0-0.1-0.1-0.2-0.1-0.2s-0.1,0-0.1,0.1v0.1c0,0,0,0-0.1,0s-0.1,0-0.1-0.1s0.1-0.2,0.2-0.2
		c0.2,0,0.3,0.1,0.3,0.2s0,0.2-0.1,0.2l0,0c0.1,0,0.2,0.1,0.1,0.3c0,0.2-0.1,0.3-0.3,0.3c-0.2,0-0.3-0.1-0.3-0.2s0-0.1,0.1-0.1
		s0.1,0,0.1,0.1s0,0.1,0.1,0.1S-231.6,446.6-231.7,446.4C-231.5,446.5-231.6,446.4-231.7,446.4"/>
	<path class="st0" d="M-230.2,449.2c0-0.1,0.1-0.2,0.1-0.2c0.1,0,0.1,0.1,0.1,0.2c0,0.2-0.1,0.2-0.1,0.2S-230.2,449.3-230.2,449.2
		 M-230,449.5L-230,449.5c0,0.2-0.1,0.2-0.1,0.3c-0.1,0-0.1,0-0.1,0.1c0,0,0,0.1,0.1,0c0.1,0,0.2-0.1,0.2-0.2
		c0.1-0.1,0.2-0.3,0.2-0.4c0-0.3-0.1-0.4-0.3-0.4c-0.2,0-0.3,0.1-0.3,0.3C-230.2,449.4-230.1,449.5-230,449.5
		C-230,449.5-230.1,449.5-230,449.5"/>
	<path class="st0" d="M-230,443.3c0.1,0,0.1-0.1,0.1-0.2s-0.1-0.2-0.1-0.2c-0.1,0-0.1,0-0.1,0.2S-230.1,443.3-230,443.3L-230,443.3
		L-230,443.3c-0.2,0.1-0.3,0-0.3-0.2c0-0.1,0-0.2,0.1-0.2c0,0,0,0,0-0.1s-0.1-0.1-0.1-0.2s0.1-0.2,0.3-0.2v0.1c0,0-0.1,0-0.1,0.1
		s0,0.1,0.1,0.1c0,0,0.1,0,0.1-0.1s0-0.1-0.1-0.1v-0.1c0.2,0,0.3,0.1,0.3,0.2s0,0.1-0.1,0.2c0,0,0,0,0,0.1c0.1,0.1,0.1,0.1,0.1,0.2
		C-229.7,443.2-229.8,443.4-230,443.3L-230,443.3z"/>
	<path class="st0" d="M-233,446.8c0.1,0,0.1-0.1,0.1-0.2s-0.1-0.2-0.1-0.2c-0.1,0-0.1,0-0.1,0.2C-233.2,446.7-233.1,446.8-233,446.8
		L-233,446.8L-233,446.8c-0.2,0.1-0.3,0-0.3-0.2c0-0.1,0.1-0.2,0.1-0.2s0,0,0-0.1c0,0-0.1-0.1-0.1-0.2s0.1-0.2,0.3-0.2v0.1
		c0,0-0.1,0-0.1,0.1s0,0.1,0.1,0.1s0.1,0,0.1-0.1s0-0.1-0.1-0.1v-0.1c0.2,0,0.3,0.1,0.3,0.2s0,0.1-0.1,0.2c0,0,0,0,0,0.1
		c0.1,0.1,0.1,0.1,0.1,0.2C-232.7,446.7-232.8,446.9-233,446.8L-233,446.8z"/>
	<path class="st0" d="M-228.6,449.8c0.1,0,0.1-0.1,0.1-0.2s-0.1-0.2-0.1-0.2c-0.1,0-0.1,0-0.1,0.2
		C-228.7,449.7-228.6,449.8-228.6,449.8L-228.6,449.8L-228.6,449.8c-0.2,0.1-0.3,0-0.3-0.2c0-0.1,0-0.2,0.1-0.2c0,0,0,0,0-0.1
		s-0.1-0.1-0.1-0.2s0.1-0.2,0.3-0.2v0.1c0,0-0.1,0-0.1,0.1s0,0.1,0.1,0.1c0,0,0.1,0,0.1-0.1s0-0.1-0.1-0.1v-0.1
		c0.2,0,0.3,0.1,0.3,0.2s0,0.1-0.1,0.2c0,0,0,0,0,0.1c0.1,0.1,0.1,0.1,0.1,0.2C-228.2,449.7-228.4,449.8-228.6,449.8L-228.6,449.8z"
		/>
	<path class="st0" d="M-232.2,446.7C-232.2,446.7-232.1,446.7-232.2,446.7c0.1,0,0.1-0.1,0.2-0.1c0,0,0,0,0,0.1s0,0.1,0,0.2
		c0,0,0,0-0.1,0h-0.4h-0.1c0,0,0-0.1,0.1-0.2s0.2-0.2,0.3-0.3c0.1-0.1,0.1-0.1,0.1-0.2s0-0.2-0.1-0.2s-0.1,0-0.1,0.1c0,0,0,0,0,0.1
		c0,0,0,0.1-0.1,0.1s-0.1,0-0.1-0.1s0.1-0.2,0.3-0.2c0.2,0,0.3,0.1,0.3,0.3c0,0.1,0,0.2-0.1,0.2c-0.1,0.1-0.4,0.3-0.3,0.3
		L-232.2,446.7L-232.2,446.7z"/>
	<path class="st0" d="M-229.2,449.7C-229.2,449.7-229.1,449.7-229.2,449.7c0.1,0,0.1-0.1,0.1-0.1s0,0,0,0.1s0,0.1,0,0.1s0,0-0.1,0
		h-0.4c0,0-0.1,0-0.1-0.1c0,0,0-0.1,0.1-0.2s0.2-0.2,0.3-0.3c0.1-0.1,0.1-0.1,0.1-0.2s0-0.2-0.1-0.2s-0.1,0-0.1,0.1c0,0,0,0,0,0.1
		c0,0,0,0.1-0.1,0.1s-0.1,0-0.1-0.1s0.1-0.2,0.3-0.2c0.2,0,0.3,0.1,0.3,0.3c0,0.1,0,0.2-0.1,0.3c-0.1,0.1-0.4,0.3-0.3,0.3
		L-229.2,449.7L-229.2,449.7z"/>
	<path class="st0" d="M-228.6,443.2C-228.6,443.2-228.5,443.2-228.6,443.2c0.1,0,0.1-0.1,0.1-0.1s0,0,0,0.1s0,0.1,0,0.1s0,0-0.1,0
		h-0.4h-0.1c0,0,0-0.1,0.1-0.2s0.2-0.2,0.3-0.3c0-0.1,0.1-0.1,0.1-0.2s0-0.2-0.1-0.2s-0.1,0-0.1,0.1c0,0,0,0,0,0.1
		c0,0,0,0.1-0.1,0.1s-0.1-0.1-0.1-0.1c0-0.1,0.1-0.2,0.3-0.2c0.2,0,0.3,0.1,0.3,0.3c0,0.1,0,0.2-0.1,0.2c-0.1,0.1-0.4,0.3-0.3,0.3
		L-228.6,443.2L-228.6,443.2z"/>
	<path class="st0" d="M-233.8,446L-233.8,446c0-0.1,0-0.1,0-0.1h0.2c0,0,0.1,0,0.1,0.1v0.7c0,0.1,0,0.1,0.1,0.1h0.1c0,0,0,0-0.1,0
		h-0.3l0,0c0,0,0,0,0.1,0l0.1-0.1L-233.8,446C-233.7,446-233.7,446-233.8,446"/>
	<path class="st0" d="M-230.8,449L-230.8,449C-230.8,448.9-230.8,448.9-230.8,449l0.2-0.1c0,0,0.1,0,0.1,0.1v0.7
		c0,0.1,0,0.1,0.1,0.1h0.1l0,0h-0.3h-0.1c0,0,0,0,0.1,0l0.1-0.1L-230.8,449C-230.7,449-230.8,449-230.8,449"/>
	<path class="st0" d="M-229.6,446.7c-0.5,0.3-0.5,0.1-0.5,0.1s0.1-0.1,0.3-0.3l-0.3-0.2c-0.1,0.1-0.2,0.3-0.4,0.4
		c0,0.1-0.2,0.3-0.3,0.4c0,0.1,0,0.1-0.2,0.2c-0.1,0.1-1,0.7-1.8,2c-0.1,0.1-0.1,0.2,0.1,0c0.1-0.1,0.8-0.6,1.1-0.7
		c0,0,0.3-0.3,0.8-1.2c0,0,0.7-0.3,0.7-0.4C-230,447-229.8,446.9-229.6,446.7L-229.6,446.7z M-231.6,448.5c-0.2,0.1-0.4,0.2-0.4,0.2
		c0.2-0.4,0.6-0.7,0.8-1C-231.4,448.2-231.6,448.5-231.6,448.5"/>
	<path class="st0" d="M-232.7,443.3c0,0,0.1,0,0.2,0.1s0.1,0.2,0.1,0.2h-0.1c-0.1-0.1-0.1-0.1-0.1-0.1
		C-232.7,443.4-232.7,443.4-232.7,443.3C-232.7,443.3-232.8,443.3-232.7,443.3"/>
	<path class="st0" d="M-232.7,443.6L-232.7,443.6c0.1,0.1,0.2,0.2,0.2,0.2c0.1,0,0,0.1,0,0.1s-0.1,0-0.2-0.1
		C-232.8,443.7-232.8,443.6-232.7,443.6"/>
	<path class="st0" d="M-230.9,445.4c-0.1,0-0.1-0.2-0.1-0.2c0-0.1-0.1-0.2-0.1-0.2h-0.1c0,0.1-0.1,0.1-0.2,0.1l0.1,0.2l0.4,0.3
		L-230.9,445.4z"/>
	<path class="st0" d="M-232.1,444.4c0-0.1,0.2-0.1,0.3-0.1c0.1,0,0.2,0.1,0.2,0.2s0.1,0.2,0.1,0.2s-0.1,0-0.1-0.1s-0.1-0.2-0.2-0.2
		s-0.2,0-0.2,0.1C-232.1,444.6-232.1,444.5-232.1,444.4"/>
	<path class="st0" d="M-231.2,443.7C-231.2,443.8-231.2,443.8-231.2,443.7c-0.1,0-0.1,0-0.1,0S-231.2,443.7-231.2,443.7
		L-231.2,443.7"/>
	<path class="st0" d="M-234.8,445.7C-234.8,445.8-234.8,445.8-234.8,445.7c-0.1,0-0.1,0-0.1,0s-0.1,0-0.2,0l-0.9-0.1
		c-0.1,0-0.1,0-0.2,0h-0.1c0,0-0.1,0-0.1-0.1l0.1-0.7c0,0,0,0,0.1,0h0.2c0.1,0,0.1,0,0.1,0s0,0,0,0.1l-0.1,0.1c0,0.1,0,0.2,0,0.2
		c0.1,0,0.4,0,0.4,0l0,0c0-0.1,0-0.1,0-0.1s-0.1,0-0.1-0.1h0.1h0.2c0.1,0,0.1,0,0.1,0.1l-0.1,0.1v0.1c0,0,0,0,0,0.1
		c0.1,0,0.4,0,0.4,0c0.1,0,0.1,0,0.1-0.1v-0.1c0-0.1,0-0.1,0-0.2s-0.2-0.1-0.2-0.1s0,0,0.1,0c0,0,0.2,0,0.2,0.1l0.1,0.1
		L-234.8,445.7z"/>
	<path class="st0" d="M-231.8,441.4L-231.8,441.4c-0.1-0.1-0.1-0.1-0.1-0.1s0-0.1,0-0.2l-0.3-0.8c0-0.1,0-0.1-0.1-0.1
		c0,0-0.1,0-0.1-0.1V440l0.7-0.2h0.1l0.1,0.2v0.1c0,0,0,0-0.1,0c0,0-0.1-0.1-0.2,0c-0.1,0-0.2,0.1-0.2,0.1c0,0.1,0.1,0.3,0.1,0.3
		s0,0,0.1,0c0,0,0.1,0,0.1-0.1v-0.1c0,0,0.1,0,0.1,0.1l0.1,0.2v0.1h-0.1h-0.1c0,0,0,0,0,0.1s0.1,0.4,0.1,0.4c0,0.1,0.1,0.1,0.1,0.1
		h0.1c0.1,0,0.1-0.1,0.1-0.1c0-0.1,0-0.2,0.1-0.2c0,0,0,0,0.1,0.1l0.1,0.2c0,0,0,0.1-0.1,0.1H-231.8z"/>
	<path class="st0" d="M-234.4,448.4C-234.2,448.4-234.2,448.5-234.4,448.4c-0.1,0.1-0.1,0.1-0.1,0.1s-0.1,0-0.2,0.1l-0.8,0.3
		c-0.1,0-0.1,0-0.1,0.1c0,0,0,0.1-0.1,0.1h-0.1l-0.2-0.6v-0.1l0.2-0.1h0.1c0,0,0,0,0,0.1c0,0-0.1,0.1,0,0.2c0,0.1,0.1,0.2,0.1,0.1
		c0.1,0,0.3-0.1,0.3-0.1s0,0,0-0.1c0,0,0-0.1-0.1-0.1h-0.1c0,0,0-0.1,0.1-0.1l0.2-0.1h0.1v0.1v0.1c0,0,0,0,0.1,0l0.3-0.1
		c0.1,0,0.1,0,0.1-0.1c0,0,0-0.1,0.1-0.1h0.1V448.4z"/>
	<path class="st0" d="M-234,441.5c0-0.1-0.1-0.1-0.1-0.1h-0.1v-0.1l0.2-0.2h0.1c0,0,0,0,0,0.1c0,0,0,0.1,0.1,0.1l0.6,0.7
		c0.1,0.1,0.1,0.1,0.1,0.1h0.1v0.1l-0.2,0.2h-0.1c0,0,0,0,0-0.1c0,0,0-0.1-0.1-0.1L-234,441.5z"/>
	<path class="st0" d="M-235.2,443.1c-0.1,0-0.1-0.1-0.2-0.1h-0.1c0,0,0,0,0-0.1l0.1-0.3c0,0,0,0,0.1,0c0,0,0,0,0,0.1l0.1,0.1
		l0.8,0.5c0.1,0,0.1,0.1,0.1,0.1h0.1c0,0,0,0,0,0.1l-0.1,0.3c0,0,0,0.1-0.1,0c0,0,0,0-0.1-0.1c0,0-0.1,0-0.1-0.1L-235.2,443.1z"/>
	<path class="st0" d="M-235.7,447l0.6-0.1c0.1,0,0.1,0,0.1,0s0,0,0.1-0.1h0.1v0.2c0,0,0,0.1-0.1,0.1c0,0,0,0-0.1,0c0,0-0.1,0-0.2,0
		l-0.9,0.1c-0.1,0-0.1,0-0.2,0c0,0,0,0-0.1,0.1h-0.1V447c0,0,0-0.1,0.1-0.1l0.7-0.2c0.1,0,0,0,0-0.1c0,0-0.7-0.2-0.8-0.2
		c-0.1,0-0.1-0.1-0.1-0.1V446c0,0,0-0.1,0.1-0.1c0,0,0,0,0.1,0c0,0,0.1,0,0.2,0h0.9c0.1,0,0.1,0,0.2,0c0,0,0.1,0,0.1-0.1
		c0,0,0.1,0,0.1,0.1v0.3c0,0,0,0.1-0.1,0.1c0,0,0,0-0.1,0c0,0-0.1,0-0.2,0h-0.6c0,0-0.1,0,0,0s0.8,0.2,0.8,0.2h0.1c0,0,0,0-0.1,0.1
		C-234.9,446.7-235.7,447-235.7,447L-235.7,447"/>
	<path class="st0" d="M-226.9,451.1l0.4,0.8c0,0.1,0.1,0.1,0.1,0.1h0.1v0.1l-0.3,0.1h-0.1c0,0,0,0,0-0.1c0,0,0-0.1-0.1-0.1l-0.4-0.7
		c-0.1-0.1-0.1-0.4,0.1-0.5s0.3,0,0.4,0c0,0.1,0,0.2,0,0.2c-0.1,0-0.1,0-0.2,0c0,0-0.1-0.1-0.1,0C-227,450.9-226.9,451-226.9,451.1"
		/>
	<path class="st0" d="M-234.8,444.4l-0.9-0.3c-0.1,0-0.1-0.1-0.1-0.1c0-0.1,0.3-0.2,0.6-0.1c0.4,0.1,0.5,0.3,0.5,0.5
		C-234.6,444.4-234.7,444.4-234.8,444.4 M-236,444.3L-236,444.3c0.1,0.1,0.1,0.1,0.1,0.1s0.1,0,0.2,0l0.8,0.3c0.1,0,0.1,0,0.2,0.1
		c0,0,0,0.1,0.1,0.1h0.1l0.1-0.3c0.1-0.2,0.1-0.3,0-0.5c-0.1-0.1-0.2-0.3-0.5-0.4s-0.5,0-0.7,0.1c-0.1,0.1-0.2,0.2-0.2,0.3
		L-236,444.3z"/>
	<path class="st0" d="M-227.5,451.8c0.1,0.4,0.2,0.6,0,0.6c-0.2,0.1-0.3-0.1-0.4-0.5c-0.1-0.3-0.1-0.6,0-0.6
		C-227.7,451.3-227.6,451.4-227.5,451.8 M-227.2,451.7c-0.1-0.2-0.2-0.4-0.3-0.5c-0.1-0.1-0.3-0.1-0.4,0c-0.1,0-0.2,0.2-0.3,0.3
		c-0.1,0.2,0,0.4,0,0.6c0.1,0.2,0.2,0.4,0.3,0.5c0.1,0.1,0.3,0.1,0.4,0.1s0.2-0.2,0.3-0.3C-227.1,452.1-227.1,451.9-227.2,451.7"/>
	<path class="st0" d="M-234.5,449.6c-0.3,0.2-0.5,0.3-0.6,0.2c-0.1-0.1,0-0.3,0.4-0.5c0.3-0.2,0.5-0.3,0.6-0.1
		C-234.1,449.2-234.1,449.3-234.5,449.6 M-234.4,449.8c0.2-0.1,0.3-0.3,0.4-0.5s0-0.3,0-0.4c-0.1-0.1-0.2-0.2-0.4-0.2
		c-0.2,0-0.4,0-0.6,0.2c-0.2,0.1-0.3,0.3-0.4,0.5c-0.1,0.1,0,0.3,0,0.4c0.1,0.1,0.2,0.2,0.4,0.2C-234.8,450-234.6,450-234.4,449.8"
		/>
	<path class="st0" d="M-229.2,452.6c0-0.1,0-0.3-0.1-0.6c0-0.4,0.1-0.6,0.4-0.6s0.5,0.1,0.5,0.5l0.1,0.6c0,0.1,0,0.1,0,0.2
		c0,0,0,0.1,0.1,0.1v0.1h-0.3c0,0-0.1,0-0.1-0.1c0,0,0,0,0-0.1c0,0,0-0.1,0-0.2s0-0.4-0.1-0.5c0-0.4-0.1-0.5-0.3-0.5
		c-0.2,0-0.2,0.1-0.2,0.4s0.1,0.6,0.1,0.6c0,0.1,0,0.1,0,0.2c0,0,0,0,0.1,0.1c0,0,0,0.1-0.1,0.1h-0.2c0,0-0.1,0-0.1-0.1
		c0,0,0,0,0-0.1C-229.2,452.8-229.2,452.7-229.2,452.6"/>
	<path class="st0" d="M-233.7,442.4L-233.7,442.4c0.1-0.1,0.1,0,0.1,0c0,0.1,0.1,0.3,0,0.4s-0.2,0.2-0.3,0.2c-0.2,0-0.4,0-0.6-0.2
		c-0.1-0.1-0.2-0.2-0.3-0.4c-0.1-0.2-0.1-0.4,0-0.6c0,0,0.1-0.1,0.2-0.1l0.1-0.1c0,0,0.1-0.1,0.1,0l0.2,0.2c0.1,0,0.1,0.1,0,0.1
		h-0.1c-0.1-0.1-0.2,0-0.3,0c-0.1,0.1,0,0.4,0.3,0.6s0.5,0.3,0.6,0.1C-233.6,442.6-233.7,442.5-233.7,442.4"/>
	<path class="st0" d="M-225.9,451.1c0,0.1,0,0.1-0.1,0.1s-0.1,0-0.1-0.1s0-0.1,0.1-0.1C-226,450.9-225.9,451-225.9,451.1"/>
	<path class="st0" d="M-233.9,450.3c0,0.1,0,0.1-0.1,0.1s-0.1-0.1-0.1-0.1c0-0.1,0-0.1,0.1-0.1
		C-233.9,450.1-233.9,450.2-233.9,450.3"/>
	<path class="st0" d="M-235.2,447.7c0,0.1,0,0.1-0.1,0.1s-0.1-0.1-0.1-0.1c0-0.1,0-0.1,0.1-0.1S-235.2,447.6-235.2,447.7"/>
	<path class="st0" d="M-232.7,450.4C-232.7,450.5-232.7,450.5-232.7,450.4c0,0.1,0,0.1-0.1,0.1c0,0,0,0-0.1,0.1l-0.6,0.7
		c-0.1,0.1-0.1,0.1-0.1,0.1v0.1h-0.1l-0.2-0.2v-0.1c0,0,0,0,0.1,0c0,0,0.1,0,0.1-0.1l0.6-0.7c0-0.1,0-0.1,0-0.1l0,0
		c-0.1-0.1-0.1-0.1-0.2-0.1s-0.1,0.1-0.2,0v-0.1c0,0,0.1-0.2,0.2-0.2h0.1L-232.7,450.4z"/>
	<path class="st0" d="M-232.4,451l0.2,0.1h0.1c0.1-0.1,0.1-0.1,0.1-0.1v-0.1c0,0,0,0,0.1,0l0.2,0.1c0,0,0.1,0,0,0.1
		c0,0-0.1,0-0.1,0.1l-1,0.9c0,0-0.1,0.1-0.1,0c0,0,0,0,0-0.1c0,0,0.3-1.2,0.3-1.3c0-0.1,0-0.1,0-0.1v-0.1h0.1l0.2,0.1
		c0,0,0.1,0,0,0.1h-0.1C-232.4,450.8-232.4,450.9-232.4,451L-232.4,451 M-232.2,451.4C-232.2,451.4-232.2,451.3-232.2,451.4
		l-0.2-0.1l0,0l-0.1,0.4l0,0L-232.2,451.4z"/>
	<path class="st0" d="M-230.6,452.4c0-0.2,0.2-0.3,0.2-0.3s0,0,0-0.1l-0.1-0.4c0-0.1,0-0.1-0.1-0.1c0,0-0.1-0.1,0-0.1l0,0
		c0,0,0.1,0,0.2,0c0,0,0.1,0,0.1,0.1c0,0,0.2,0.5,0.2,0.6s0.1,0.1,0.1,0v-0.3c0-0.1,0-0.1,0-0.2v-0.1c0,0,0-0.1,0.1-0.1h0.3
		c0,0,0.1,0,0,0.1c0,0,0,0-0.1,0.1c0,0,0,0.1,0,0.2l-0.1,0.9c0,0.1,0,0.1,0,0.2v0.1c0,0,0,0.1-0.1,0.1h-0.4
		C-230.5,452.9-230.6,452.7-230.6,452.4 M-230.1,452.2c0,0-0.2,0-0.2,0.2s0.1,0.2,0.2,0.2c0,0,0,0,0.1-0.1
		C-230.1,452.6-230,452.3-230.1,452.2C-230,452.2-230,452.2-230.1,452.2"/>
	<path class="st0" d="M-230.5,440.7L-230.5,440.7c0,0,0.2-0.2,0.5-0.2c0.1,0,0.1,0,0.1,0c0,0.1,0,0.3-0.1,0.4l-0.1,0.1h0.1
		c0.1,0,0.2,0,0.2,0h0.1h0.1c0.1,0,0.2,0,0.3,0h0.1l-0.1-0.1c-0.1-0.1-0.1-0.3-0.1-0.4c0,0,0,0,0.1,0c0.3,0,0.5,0.2,0.5,0.2l0.1,0.1
		v-0.1c0.1-0.3,0.1-0.7,0.1-0.7v-0.1h-0.1c-0.4,0.2-0.6,0.1-0.6,0.1v-0.1c0-0.1,0.1-0.2,0.1-0.3v-0.1h-0.1h-0.1c-0.1,0-0.3,0-0.4,0
		h-0.1c-0.1,0-0.2,0-0.4,0h-0.1v0.1c0,0.1,0.1,0.3,0.1,0.3s0,0,0,0.1c0,0-0.2,0.1-0.7-0.1h-0.1v0.1
		C-230.7,440-230.7,440.4-230.5,440.7L-230.5,440.7L-230.5,440.7z M-230.7,440c0.4,0.1,0.6,0.1,0.8,0c0,0,0.1-0.1,0.1-0.2
		s-0.1-0.3-0.1-0.4v0.1c0.1,0,0.2,0,0.4,0h0.1c0.1,0,0.3,0,0.4,0h0.1v-0.1c0,0-0.1,0.2-0.1,0.3c0,0.1,0,0.1,0.1,0.2s0.4,0.1,0.7,0
		l-0.1-0.1c0,0,0,0.4-0.1,0.7h0.1c0,0-0.2-0.2-0.5-0.3c-0.1,0-0.2,0-0.2,0.1c-0.1,0.1,0,0.4,0.1,0.5l0.1-0.1c-0.1,0-0.2,0-0.3,0
		h-0.1h-0.1c-0.1,0-0.2,0-0.3,0l0.1,0.1c0,0,0.2-0.4,0.1-0.5c0,0-0.1-0.1-0.2-0.1c-0.3,0-0.5,0.2-0.5,0.3h0.1
		C-230.6,440.4-230.6,439.9-230.7,440L-230.7,440z"/>
	<path class="st0" d="M-231.2,452.1l0.2-0.6c0-0.1,0-0.1,0-0.1v-0.1c0,0,0-0.1,0.1,0l0.2,0.1c0,0,0.1,0,0,0.1c0,0,0,0-0.1,0.1
		c0,0,0,0.1-0.1,0.1l-0.3,0.8c0,0.1,0,0.1,0,0.2v0.1c0,0,0,0.1-0.1,0l-0.2-0.1c-0.1,0-0.1-0.1-0.1-0.2l-0.1-0.7l0,0l-0.2,0.4
		c0,0.1,0,0.1,0,0.2v0.1c0,0,0,0.1-0.1,0l-0.2-0.1c0,0-0.1,0,0-0.1c0,0,0,0,0.1-0.1c0,0,0-0.1,0.1-0.1l0.3-1c0-0.1,0.1-0.1,0.1-0.1
		c0.1,0,0.1,0,0.1,0.1L-231.2,452.1C-231.2,452.2-231.2,452.2-231.2,452.1"/>
	<path class="st0" d="M-233.1,441.1l0.3,0.5c0,0.1,0.1,0.1,0.1,0.1h0.1v0.1l-0.2,0.1h-0.1v-0.1c0,0,0-0.1-0.1-0.1l-0.5-0.8
		c0-0.1-0.1-0.1-0.1-0.1h-0.1v-0.1l0.2-0.1c0.1,0,0.1,0,0.2,0l0.6,0.4l0,0l-0.2-0.4c0-0.1-0.1-0.1-0.1-0.1h-0.1v-0.1l0.2-0.1h0.1
		c0,0,0,0,0,0.1c0,0,0,0.1,0.1,0.1l0.5,0.9c0.1,0.1,0,0.1,0,0.2c0,0-0.1,0.1-0.1,0L-233.1,441.1L-233.1,441.1"/>
	<polygon class="st0" points="-213.2,441.2 -213.4,441.8 -213.5,441.7 -213.6,441.3 -213.7,441.2 -214.2,441.2 -214.4,441.3 
		-214.5,443.3 -214.5,443.7 -214.4,443.7 -214.1,443.9 -214.1,443.9 -215.2,443.9 -215.2,443.9 -214.9,443.7 -214.9,443.7 
		-214.8,443.4 -214.7,441.3 -214.8,441.2 -215.4,441.2 -215.4,441.3 -215.6,441.7 -215.8,441.7 -215.7,441.3 -215.8,441 -215.2,441 
		-214,441 -213.2,440.9 	"/>
	<path class="st0" d="M-211.5,443.7c-0.1,0.2-0.3,0.3-0.5,0.3h-0.1l0.1-1.5v-0.1c0-0.1,0-0.1,0-0.2h-0.1l-0.6,0.3l-0.1,1.2
		c0,0.1,0,0.2,0,0.3h-0.4l0.1-2.8l-0.2-0.4l0.5-0.1v0.1l-0.1,0.9v0.6l0,0c0.3-0.4,0.5-0.5,0.8-0.5c0.2,0,0.2,0.1,0.2,0.2l-0.1,1.6
		l0,0h0.3C-211.5,443.6-211.5,443.7-211.5,443.7"/>
	<path class="st0" d="M-210.2,442.2c0,0.2-0.1,0.4-0.5,0.6c0-0.2,0-0.3,0.1-0.4c0-0.2,0-0.2,0.1-0.4h0.2
		C-210.2,442.1-210.2,442.1-210.2,442.2 M-209.8,443.6L-209.8,443.6l-0.5,0.1h-0.1c-0.2,0-0.3-0.2-0.3-0.5c0,0,0-0.1,0-0.2
		c0.5-0.2,0.6-0.3,0.8-0.5c0.1-0.1,0.1-0.2,0.1-0.4c0-0.3-0.1-0.4-0.4-0.4s-0.4,0.1-0.5,0.3c-0.1,0.3-0.2,0.7-0.2,1.1
		c0,0.5,0.2,0.7,0.5,0.7C-210.4,444-210.1,443.9-209.8,443.6"/>
	<path class="st0" d="M-202.8,440.8l-0.1,3.1l-0.3,0.2l-2.8-3.3v2.3c0,0.5,0.2,0.6,0.8,0.7v0.2h-2v-0.2c0.6,0,0.7-0.2,0.7-0.7l0.1-2
		c0-0.7-0.1-0.9-0.7-1v-0.2h1.1l2.7,3.2l-0.1-2.3c0-0.5-0.2-0.6-0.7-0.7v-0.2h1.9v0.2C-202.7,440.1-202.8,440.3-202.8,440.8"/>
	<path class="st0" d="M-197.8,443.9h-3.5v-0.2c0.5,0,0.7-0.2,0.7-0.7v-2.3c0-0.5-0.1-0.6-0.6-0.7v-0.2h3.1l0.1,0.9l-0.2,0.1
		c-0.3-0.6-0.5-0.7-1.1-0.7h-0.8v1.6h0.6c0.4,0,0.6-0.1,0.7-0.6h0.2v1.5h-0.2c-0.1-0.5-0.3-0.6-0.7-0.6h-0.6v1.1
		c0,0.5,0.1,0.6,0.8,0.6c0.7,0,0.9-0.2,1.3-0.8h0.2V443.9z"/>
	<path class="st0" d="M-191.1,440.7l-1.1,2.8c-0.1,0.2-0.1,0.3-0.3,0.5l-1.1-3.1l-1.2,2.7c-0.1,0.2-0.1,0.3-0.3,0.4l-1.3-3.6
		c-0.1-0.2-0.2-0.3-0.5-0.4v-0.2h1.5v0.2c-0.2,0.1-0.3,0.1-0.3,0.2s0,0.1,0,0.2l0.8,2.4l0.8-2c0.1-0.2,0.1-0.3,0.1-0.4
		c0-0.2-0.1-0.3-0.5-0.4v-0.2h1.6v0.2c-0.3,0-0.4,0.1-0.4,0.3c0,0,0,0.1,0,0.2l0.9,2.3l0.6-1.9c0.1-0.3,0.2-0.5,0.2-0.6
		c0-0.2-0.1-0.3-0.4-0.4v-0.2h1.6v0.2C-190.8,440.2-191,440.3-191.1,440.7"/>
	<path class="st0" d="M-184.1,443.9h-3.4v-0.2c0.5,0,0.7-0.2,0.7-0.7v-2.3c0-0.5-0.1-0.6-0.6-0.7v-0.2h3.1l0.1,0.9l-0.2,0.1
		c-0.3-0.6-0.5-0.7-1.1-0.7h-0.8v1.6h0.6c0.4,0,0.6-0.1,0.7-0.6h0.2v1.5h-0.2c-0.1-0.5-0.3-0.6-0.7-0.6h-0.6v1.1
		c0,0.5,0.1,0.6,0.8,0.6c0.7,0,0.9-0.2,1.3-0.8h0.2L-184.1,443.9z"/>
	<path class="st0" d="M-178.2,440.8l-0.1,3.1l-0.3,0.2l-2.8-3.3l0.1,2.3c0,0.5,0.2,0.6,0.8,0.7v0.2h-2v-0.2c0.6,0,0.7-0.2,0.7-0.7
		l0.1-2c0-0.7-0.1-0.9-0.7-1v-0.2h1.1l2.7,3.2l-0.1-2.3c0-0.5-0.2-0.6-0.7-0.7v-0.2h1.9v0.2C-178.2,440.1-178.2,440.3-178.2,440.8"
		/>
	<path class="st0" d="M-172.7,442.8v0.4l0.1,0.6c-0.1,0-0.2,0-0.2,0c-0.1,0,0,0-0.7,0.2c-0.3,0.1-0.6,0.1-1,0.1
		c-0.7,0-1.2-0.1-1.6-0.5c-0.5-0.4-0.8-0.9-0.8-1.6c0-1.3,0.9-2.1,2.5-2.1c0.5,0,0.8,0.1,1.5,0.3l0.1,1l-0.2,0.1
		c-0.5-0.8-0.8-1-1.6-1c-0.9,0-1.6,0.7-1.6,1.8c0,1.1,0.7,1.8,1.7,1.8c0.6,0,1-0.3,1-0.7V443c0-0.5-0.2-0.6-0.7-0.7v-0.2h2v0.2
		C-172.5,442.2-172.7,442.4-172.7,442.8"/>
	<path class="st0" d="M-167.8,443.9h-3.4v-0.2c0.6,0,0.7-0.2,0.7-0.7v-2.3c0-0.5-0.1-0.7-0.5-0.8v-0.2h1.9v0.2
		c-0.6,0.1-0.7,0.2-0.7,0.6v2.3c0,0.5,0.2,0.6,0.8,0.6c0.6,0,0.9-0.3,1.2-1.1h0.2L-167.8,443.9z"/>
	<path class="st0" d="M-164,442.3h-1.4l0.7-1.9L-164,442.3z M-162.4,443.9v-0.2c-0.3-0.1-0.4-0.2-0.4-0.4l-1.4-3.5h-0.5l-1.3,3.3
		c-0.2,0.5-0.3,0.5-0.7,0.7v0.2h1.6v-0.2c-0.3-0.1-0.4-0.1-0.5-0.1s-0.1-0.1-0.1-0.2s0-0.2,0.1-0.4l0.2-0.5h1.7l0.3,0.7
		c0,0.1,0.1,0.2,0.1,0.2c0,0.1-0.1,0.2-0.3,0.3v0.2h1.2V443.9z"/>
	<path class="st0" d="M-157.2,440.8l-0.1,3.1l-0.3,0.2l-2.8-3.3v2.3c0,0.5,0.2,0.6,0.8,0.7v0.2h-2v-0.2c0.6,0,0.7-0.2,0.7-0.7l0.1-2
		c0-0.7-0.1-0.9-0.7-1v-0.2h1.1l2.7,3.2l-0.1-2.3c0-0.5-0.2-0.6-0.7-0.7v-0.2h1.9v0.2C-157.1,440.1-157.2,440.3-157.2,440.8"/>
	<path class="st0" d="M-151.9,442c0,1-0.8,1.7-1.8,1.7c-0.5,0-0.7-0.2-0.7-0.7v-2.8c0.7,0,1,0.1,1.4,0.3c0.2,0.1,0.4,0.2,0.6,0.4
		C-152.1,441.2-151.9,441.5-151.9,442 M-151.2,441.9c0-0.8-0.4-1.4-1.1-1.8c-0.4-0.2-0.9-0.3-1.6-0.3c-0.3,0-0.6,0-1.1,0h-0.6v0.2
		c0.5,0,0.6,0.2,0.6,0.7v2.2c0,0.5-0.1,0.7-0.7,0.7v0.2h1.2c0.4,0,0.8,0,1,0C-152.1,444-151.2,443.2-151.2,441.9"/>
	<path class="st0" d="M-215.8,452.5c0.9-0.4,1.2-1,1.2-1.7v-2.9c0-0.5-0.2-0.6-0.7-0.7V447h2.1v0.2c-0.5,0.1-0.6,0.2-0.7,0.6
		l-0.1,2.7C-214,451.7-214.7,452.4-215.8,452.5L-215.8,452.5z"/>
	<path class="st0" d="M-208.5,449.2c0,1-0.6,1.7-1.4,1.7c-0.9,0-1.6-0.8-1.6-1.9c0-1,0.6-1.7,1.4-1.7
		C-209.2,447.3-208.5,448.1-208.5,449.2 M-207.7,449.1c0-1.2-1-2.1-2.3-2.1c-1.4,0-2.3,0.9-2.3,2.1s1,2.1,2.3,2.1
		S-207.7,450.4-207.7,449.1"/>
	<path class="st0" d="M-202.8,448l-0.1,1.5c0,1-0.2,1.1-0.5,1.4s-0.8,0.4-1.3,0.4c-0.4,0-0.8-0.1-1.1-0.3c-0.2-0.1-0.3-0.2-0.4-0.3
		c-0.2-0.3-0.2-0.5-0.2-1V448c0-0.5-0.1-0.7-0.5-0.8V447h1.9v0.2c-0.6,0.1-0.7,0.2-0.7,0.7v1.6c0,0.5,0.1,0.8,0.4,1
		c0.2,0.2,0.6,0.3,0.9,0.3s0.7-0.1,0.9-0.3c0.2-0.2,0.3-0.5,0.3-0.9v-0.1V448c0-0.5-0.1-0.6-0.7-0.7v-0.2h1.7v0.2
		C-202.7,447.4-202.8,447.5-202.8,448"/>
	<path class="st0" d="M-198.7,448.3c0,0.3-0.1,0.6-0.4,0.8c-0.2,0-0.2,0.1-0.4,0.1c-0.2,0-0.3-0.1-0.5-0.1v-1.7c0.7,0,0.8,0.1,1,0.3
		C-198.8,447.8-198.7,448.1-198.7,448.3 M-196.8,451.1L-196.8,451.1c-0.5-0.2-0.7-0.2-0.9-0.4c-0.3-0.3-0.6-0.6-1.2-1.4
		c0.4-0.3,0.5-0.4,0.6-0.6s0.2-0.4,0.2-0.6c0-0.6-0.5-1-1.2-1c-0.3,0-0.4,0-0.9,0.1l-1.1-0.1v0.2c0.5,0.1,0.6,0.3,0.6,0.8v2.3
		c0,0.5-0.1,0.6-0.7,0.7v0.2h2V451c-0.5-0.1-0.7-0.2-0.7-0.7v-0.9c0.1,0,0.2,0,0.3,0c0.1,0,0.2,0,0.3,0c0.4,0.7,0.6,1,0.9,1.3
		s0.7,0.5,1.1,0.5C-197.2,451.2-197.1,451.2-196.8,451.1"/>
	<path class="st0" d="M-191.9,447.9l-0.1,3.1l-0.3,0.2l-2.8-3.3v2.3c0,0.5,0.2,0.6,0.8,0.7v0.2h-2V451c0.6,0,0.7-0.2,0.7-0.7l0.1-2
		c0-0.7-0.1-0.9-0.7-1v-0.2h1.1l2.7,3.2l-0.1-2.3c0-0.5-0.2-0.6-0.7-0.7v-0.2h1.9v0.2C-191.8,447.3-191.9,447.5-191.9,447.9"/>
	<path class="st0" d="M-188,449.5h-1.4l0.7-1.9L-188,449.5z M-186.4,451.1V451c-0.3-0.1-0.4-0.2-0.4-0.4l-1.4-3.5h-0.5l-1.3,3.3
		c-0.2,0.5-0.3,0.5-0.7,0.7v0.2h1.6V451c-0.3-0.1-0.4-0.1-0.5-0.1s-0.1-0.1-0.1-0.2s0-0.2,0.1-0.4l0.2-0.5h1.7l0.3,0.7
		c0,0.1,0.1,0.2,0.1,0.2c0,0.1-0.1,0.2-0.3,0.3v0.2h1.2V451.1z"/>
	<path class="st0" d="M-182.1,451.1h-3.4V451c0.6,0,0.7-0.2,0.7-0.7v-2.2c0-0.6-0.1-0.7-0.5-0.8v-0.2h1.9v0.2
		c-0.6,0.1-0.7,0.2-0.7,0.6v2.4c0,0.5,0.2,0.6,0.8,0.6c0.6,0,0.9-0.3,1.2-1.1h0.2L-182.1,451.1z"/>
	<path class="st0" d="M-177.8,449.7c0,0.2,0,0.5-0.1,0.7c0,0.2-0.1,0.3-0.2,0.5h-0.2c-0.2,0-0.3,0-0.3-0.1c-0.1-0.1-0.1-0.3-0.1-0.6
		c0-0.4,0.1-0.8,0.2-1c0,0,0-0.1,0.1-0.1h0.3C-177.9,449-177.8,449.1-177.8,449.7 M-177.5,449.6c0-0.7-0.2-0.9-0.7-0.9
		s-0.8,0.3-1,0.8c-0.1,0.2-0.1,0.5-0.1,0.8c0,0.7,0.2,0.9,0.7,0.9C-177.8,451.2-177.5,450.6-177.5,449.6"/>
	<path class="st0" d="M-175,447.9c-0.1-0.1-0.2-0.1-0.3-0.1l-0.5-0.2c-0.2,0.1-0.3,0.3-0.3,0.8v0.5h0.6v0.3h-0.6l-0.1,2
		c0,0.5-0.1,0.7-0.2,0.9c-0.1,0.1-0.4,0.2-0.7,0.2c-0.2,0-0.4,0-0.8-0.2l0.1-0.4c0.1,0.1,0.2,0.1,0.3,0.2l0.5,0.2
		c0.3-0.1,0.4-0.3,0.4-0.9v-2h-0.5v-0.3h0.5v-0.6c0-0.6,0.4-0.8,0.9-0.8c0.3,0,0.5,0.1,0.8,0.2L-175,447.9z"/>
	<path class="st0" d="M-168.5,451.1V451c0.3-0.1,0.4-0.2,0.4-0.4v-0.1l-0.2-2.6l-1.5,3.5l-1.5-3.4l-0.2,2c0,0.2,0,0.3,0,0.4
		c0,0.4,0.2,0.5,0.6,0.6v0.2h-1.7V451c0.5-0.1,0.6-0.2,0.7-0.6l0.3-2.1c0-0.3,0.1-0.5,0.1-0.6c0-0.3-0.2-0.4-0.6-0.4v-0.2h1.2
		l1.3,2.9l1.3-2.9h1.2v0.2c-0.4,0-0.6,0.1-0.6,0.4c0,0,0,0.1,0,0.2l0.3,2.7c0,0.3,0.1,0.4,0.4,0.4v0.2h-1.5V451.1z"/>
	<path class="st0" d="M-162.6,451.1h-3.4V451c0.5,0,0.7-0.2,0.7-0.7V448c0-0.5-0.1-0.6-0.6-0.7v-0.2h3.1l0.1,0.9l-0.2,0.1
		c-0.3-0.6-0.5-0.7-1.1-0.7h-0.8v1.6h0.6c0.4,0,0.6-0.1,0.7-0.6h0.2v1.5h-0.2c-0.1-0.5-0.3-0.6-0.7-0.6h-0.6v1.1
		c0,0.5,0.1,0.6,0.8,0.6c0.7,0,0.9-0.2,1.3-0.8h0.2L-162.6,451.1z"/>
	<path class="st0" d="M-157.4,449.2c0,1-0.8,1.7-1.8,1.7c-0.5,0-0.7-0.2-0.7-0.7v-2.8c0.7,0,1,0.1,1.4,0.3c0.2,0.1,0.4,0.2,0.6,0.4
		C-157.6,448.3-157.4,448.7-157.4,449.2 M-156.7,449.1c0-0.8-0.4-1.4-1.1-1.7c-0.4-0.2-0.9-0.3-1.6-0.3c-0.3,0-0.6,0-1.1,0h-0.6v0.2
		c0.5,0,0.6,0.2,0.6,0.7v2.2c0,0.5-0.1,0.7-0.7,0.7v0.2h1.2c0.4,0,0.8,0,1.1,0C-157.6,451.2-156.7,450.4-156.7,449.1"/>
	<path class="st0" d="M-155.6,451.1V451c0.6,0,0.7-0.2,0.7-0.7v-2.4c0-0.5-0.1-0.6-0.7-0.7V447h2.1v0.2c-0.6,0.1-0.7,0.2-0.7,0.7
		v2.4c0,0.5,0.2,0.6,0.7,0.7v0.2h-2.1V451.1z"/>
	<path class="st0" d="M-148.7,451c-0.6,0.1-0.8,0.2-1.3,0.2c-0.7,0-1.1-0.1-1.5-0.4c-0.5-0.4-0.8-1-0.8-1.7c0-1.2,0.9-2.1,2.3-2.1
		c0.5,0,0.7,0.1,1.3,0.3v0.9l-0.1,0.1c-0.2-0.4-0.3-0.6-0.5-0.8c-0.2-0.2-0.5-0.2-0.8-0.2c-0.9,0-1.5,0.7-1.5,1.7
		c0,1.1,0.7,1.9,1.5,1.9c0.6,0,1.1-0.3,1.4-1h0.2L-148.7,451z"/>
	<path class="st0" d="M-147.2,451.1V451c0.6,0,0.7-0.2,0.7-0.7v-2.4c0-0.5-0.1-0.6-0.7-0.7V447h2.1v0.2c-0.6,0.1-0.7,0.2-0.7,0.7
		v2.4c0,0.5,0.2,0.6,0.7,0.7v0.2h-2.1V451.1z"/>
	<path class="st0" d="M-139.7,447.9l-0.1,3.1l-0.3,0.2l-2.8-3.3v2.3c0,0.5,0.2,0.6,0.8,0.7v0.2h-2V451c0.6,0,0.7-0.2,0.7-0.7l0.1-2
		c0-0.7-0.1-0.9-0.7-1v-0.2h1.1l2.7,3.2l-0.1-2.3c0-0.5-0.2-0.6-0.7-0.7v-0.2h1.9v0.2C-139.6,447.3-139.7,447.5-139.7,447.9"/>
	<path class="st0" d="M-134.8,451.1h-3.5V451c0.5,0,0.7-0.2,0.7-0.7V448c0-0.5-0.1-0.6-0.6-0.7v-0.2h3.1l0.1,0.9l-0.2,0.1
		c-0.3-0.6-0.5-0.7-1.1-0.7h-0.8v1.6h0.6c0.4,0,0.6-0.1,0.7-0.6h0.2v1.5h-0.2c-0.1-0.5-0.3-0.6-0.7-0.6h-0.6v1.1
		c0,0.5,0.1,0.6,0.8,0.6c0.7,0,0.9-0.2,1.3-0.8h0.2V451.1z"/>
	<path class="st0" d="M-227.1,446.8c0.1,0,0.1-0.1,0.1-0.2s-0.1-0.2-0.1-0.2c-0.1,0-0.1,0-0.1,0.2
		C-227.2,446.7-227.2,446.8-227.1,446.8L-227.1,446.8L-227.1,446.8c-0.2,0.1-0.3,0-0.3-0.2c0-0.1,0.1-0.2,0.1-0.2s0,0,0-0.1
		c0,0-0.1-0.1-0.1-0.2s0.1-0.2,0.3-0.2v0.1c0,0-0.1,0-0.1,0.1s0,0.1,0.1,0.1c0,0,0.1,0,0.1-0.1s0-0.1-0.1-0.1v-0.1
		c0.2,0,0.3,0.1,0.3,0.2s0,0.1-0.1,0.2c0,0,0,0,0,0.1c0.1,0.1,0.1,0.1,0.1,0.2C-226.8,446.7-226.9,446.9-227.1,446.8L-227.1,446.8z"
		/>
	<path class="st0" d="M-225.7,446.8c0.1,0,0.1-0.1,0.1-0.2s-0.1-0.2-0.1-0.2c-0.1,0-0.1,0-0.1,0.2
		C-225.8,446.7-225.8,446.8-225.7,446.8L-225.7,446.8L-225.7,446.8c-0.2,0.1-0.3,0-0.3-0.2c0-0.1,0-0.2,0.1-0.2c0,0,0,0,0-0.1
		c0,0-0.1-0.1-0.1-0.2s0.1-0.2,0.3-0.2v0.1c0,0-0.1,0-0.1,0.1s0,0.1,0.1,0.1c0,0,0.1,0,0.1-0.1s0-0.1-0.1-0.1v-0.1
		c0.2,0,0.3,0.1,0.3,0.2s0,0.1-0.1,0.2c0,0,0,0,0,0.1c0.1,0.1,0.1,0.1,0.1,0.2C-225.4,446.7-225.5,446.9-225.7,446.8L-225.7,446.8z"
		/>
	<path class="st0" d="M-227.9,446L-227.9,446c-0.1-0.1,0-0.1,0-0.1h0.2c0,0,0.1,0,0.1,0.1v0.7c0,0.1,0,0.1,0.1,0.1h0.1
		c0,0,0,0-0.1,0h-0.3l0,0c0,0,0,0,0.1,0l0.1-0.1L-227.9,446C-227.8,446-227.8,446-227.9,446"/>
	<path class="st0" d="M-226.2,446.7L-226.2,446.7c0.1,0,0.1-0.1,0.1-0.1s0,0,0,0.1s0,0.1,0,0.2c0,0,0,0-0.1,0h-0.4h-0.1
		c0,0,0-0.1,0.1-0.2s0.2-0.2,0.3-0.3c0.1-0.1,0.1-0.1,0.1-0.2s0-0.2-0.1-0.2s-0.1,0-0.1,0.1c0,0,0,0,0,0.1c0,0,0,0.1-0.1,0.1
		s-0.1,0-0.1-0.1s0.1-0.2,0.3-0.2c0.2,0,0.3,0.1,0.3,0.3c0,0.1,0,0.2-0.1,0.2c-0.1,0.1-0.4,0.3-0.3,0.3L-226.2,446.7L-226.2,446.7z"
		/>
	<path class="st0" d="M-226.6,444c0,0,0.7-0.6,0.4-0.8c-0.1-0.1-0.4,0-0.8,0.3c-0.3,0.1-1.3,0.8-2.8,2.5l0.3,0.3
		c0.5-0.5,1.3-1.1,1.5-1.4c0.4-0.4,1.3-1,1.3-1c0.1,0-0.1,0.3-0.1,0.3c0.4-0.1-0.6,0.7-0.6,0.7c0.6-0.1-1,0.8-1,0.8
		c0.5-0.1-0.5,0.5-0.5,0.5c0.1,0.1-0.1,0.2-0.3,0.3l0.1,0.1c0.3-0.2,0.6-0.3,0.5-0.4c0,0,0.7-0.4,0.6-0.5c0,0,1.2-0.8,0.9-0.8
		C-227.1,444.8-226.2,444.1-226.6,444 M-227.7,444.4c-0.6,0.4-1.7,1.6-1.8,1.7c-0.1,0.1-0.1,0-0.1,0s0.5-0.6,1.5-1.6
		c1.1-1,1.7-1.2,1.7-1.2C-226.2,443.3-227.1,443.9-227.7,444.4"/>
	<path class="st0" d="M-226.4,449.2l-0.2-0.2c-0.1-0.1-0.2-0.2-0.4-0.4c0-0.1-0.1-0.2-0.1-0.3c-0.1-0.1-0.2-0.1-0.3-0.2
		c-0.1-0.1-0.3-0.3-0.4-0.4c0-0.1-0.1-0.3-0.3-0.5c-0.1-0.1-0.3-0.2-0.4-0.2c-0.1-0.1-0.3-0.3-0.4-0.4c0-0.2-0.1-0.4-0.2-0.5
		s-0.3-0.2-0.5-0.2l0,0c-0.2-0.2-0.5-0.5-0.7-0.7c0-0.3,0-0.5-0.2-0.6c-0.2-0.2-0.4-0.2-0.6-0.2c-0.2-0.2-0.3-0.3-0.4-0.4
		c0.2,0,0.3,0.1,0.4,0.1s0.2,0,0.2,0h0.1c0.1,0,0.1,0,0.1-0.1s0-0.2-0.2-0.3c-0.2-0.1-0.3-0.1-0.5-0.1c-0.1,0-0.2,0.1-0.2,0.1
		s-0.1,0.1-0.2,0.1l0,0c-0.2-0.2-0.3-0.3-0.3-0.3c-0.1-0.1-0.2-0.1-0.1-0.2c0-0.1,0-0.2-0.1-0.2c-0.1-0.1-0.1-0.1-0.2,0
		c-0.1,0-0.1,0.1-0.2,0.1l0,0c0,0-0.1,0-0.2,0.1s-0.1,0.2-0.1,0.2v0.1v0.1c0,0.1,0,0.2,0.1,0.3c0,0.1,0.1,0.1,0.1,0.1
		s0.1,0.2,0.2,0.4c0,0,0,0.1,0.1,0.1c0,0.2,0.1,0.4,0.2,0.5c0.2,0.2,0.4,0.1,0.8,0.2c0.1,0.1,0.3,0.2,0.5,0.4c0,0,0,0,0.1,0.1
		c0,0.2,0,0.5,0.2,0.7c0.3,0.2,0.6,0.2,0.9,0.3c0.2,0.1,0.3,0.3,0.5,0.5c0,0.1,0.1,0.3,0.2,0.4s0.3,0.1,0.4,0.1
		c0.2,0.1,0.3,0.3,0.5,0.4c0,0.2,0.1,0.4,0.3,0.5c0.1,0.1,0.3,0.1,0.4,0.1l1,0.8c0.1,0.1,0.2,0.1,0.2,0l0,0l0,0
		C-226.2,449.4-226.2,449.3-226.4,449.2 M-230.7,444.8c0.1,0,0.1,0,0.1,0C-230.5,444.8-230.5,444.8-230.7,444.8
		C-230.7,444.9-230.7,444.9-230.7,444.8C-230.8,444.9-230.7,444.8-230.7,444.8 M-230.8,445.3c0,0,0-0.1,0-0.2s0.1-0.1,0.1-0.1
		c0.1,0,0.1,0,0.1,0.1c0,0,0,0-0.1,0l-0.1,0.1c0,0.1,0.1,0,0.1,0s0.1,0,0,0.1H-230.8c-0.1,0,0,0.1,0,0.1c0.1,0,0.1,0,0.1,0.1
		c0,0-0.1,0-0.2,0C-230.8,445.5-230.8,445.3-230.8,445.3 M-231.6,443.8c0-0.1,0.1-0.1,0.1-0.1c0.2-0.1,0.4,0,0.4,0.1
		c0.1,0,0.2,0.1,0.1,0.2h-0.1h-0.1h-0.1h-0.1h-0.1c0,0,0,0,0,0.1l0,0h-0.1C-231.6,443.9-231.6,443.9-231.6,443.8 M-231.7,443.9
		L-231.7,443.9C-231.6,443.9-231.6,444-231.7,443.9C-231.7,444-231.7,444-231.7,443.9L-231.7,443.9 M-231.9,443.8
		C-231.9,443.8-231.8,443.8-231.9,443.8c0.1,0.1,0.1,0.1,0.1,0.2h-0.1C-231.9,443.9-231.9,443.9-231.9,443.8L-231.9,443.8
		 M-231.9,444C-232,444-232,444-231.9,444c-0.1-0.1-0.1-0.1-0.1-0.1s-0.1-0.1,0-0.1h0.1C-231.9,443.9-231.9,444-231.9,444
		 M-232.7,443.9c-0.1,0-0.1,0-0.1-0.1c-0.1-0.1-0.1-0.2-0.1-0.2s0-0.1,0-0.2s0-0.2,0-0.2c0-0.1,0.1-0.1,0.1,0h0.1c0.1,0,0.1,0,0.2,0
		h0.1c0.1,0.1,0,0.2,0,0.2c0,0.1,0.1,0.1,0.1,0.2c0,0,0.1,0.1,0.2,0.2c-0.1,0-0.2,0.1-0.3,0.2c-0.1,0.1-0.1,0.2-0.2,0.3
		C-232.6,444.1-232.7,443.9-232.7,443.9 M-232.4,444.2h0.1c0,0,0.1,0,0.1,0.1c0,0,0,0-0.1,0C-232.2,444.3-232.2,444.3-232.4,444.2
		C-232.4,444.3-232.4,444.3-232.4,444.2 M-232.4,444.5L-232.4,444.5c0-0.1,0-0.2,0.1-0.2h0.1v0.1h-0.1
		C-232.2,444.5-232.2,444.5-232.4,444.5C-232.2,444.5-232.2,444.5-232.4,444.5 M-232.2,444.7C-232.2,444.7-232.2,444.7-232.2,444.7
		C-232.2,444.7-232.2,444.7-232.2,444.7c-0.1,0,0-0.1,0-0.1h0.1C-232.1,444.6-232.1,444.6-232.2,444.7
		C-232.2,444.6-232.2,444.6-232.2,444.7 M-232.1,444.7C-232.1,444.7-232.1,444.8-232.1,444.7C-232.1,444.8-232.2,444.8-232.1,444.7
		C-232.2,444.8-232.2,444.7-232.1,444.7C-232.2,444.7-232.2,444.7-232.1,444.7L-232.1,444.7 M-232.1,444.2
		C-232.2,444.2-232.2,444.2-232.1,444.2c-0.1,0-0.1,0-0.2-0.1c-0.1,0,0-0.1,0-0.2h0.1c0,0,0.1,0,0.1,0.1v0.1V444.2L-232.1,444.2
		 M-232,444.8L-232,444.8C-232,444.9-232.1,444.9-232,444.8C-232.1,444.9-232.1,444.8-232,444.8C-232.1,444.8-232,444.8-232,444.8
		L-232,444.8 M-230.9,445.4C-230.9,445.5-230.9,445.5-230.9,445.4C-231,445.4-231,445.4-230.9,445.4c-0.3-0.2-0.5-0.4-0.7-0.5
		c-0.1-0.1-0.2-0.1-0.2-0.1c-0.2-0.1-0.2-0.4-0.1-0.6c0.1-0.1,0.2-0.1,0.3-0.1c0.2,0.2,0.4,0.4,0.7,0.7l0,0l0,0l0,0
		C-230.9,444.8-230.9,445-230.9,445.4 M-230.9,444.7L-230.9,444.7c0-0.1,0-0.1,0.1-0.1C-230.8,444.6-230.8,444.6-230.9,444.7
		C-230.8,444.7-230.9,444.7-230.9,444.7 M-230.8,446c-0.1-0.1-0.1-0.1,0-0.1h0.1c0,0,0.1,0,0-0.1c0,0-0.1-0.1-0.1-0.2c0,0,0,0,0.1,0
		h0.1h0.1c0,0.1,0,0.1,0,0.2v0.1C-230.7,446-230.7,446-230.8,446 M-230.5,446.2c0,0-0.1,0.1-0.1,0c-0.1,0-0.1-0.1,0-0.1
		s0.1,0,0.1-0.1c0,0,0,0,0-0.1c0,0,0.1,0,0.1,0.1S-230.4,446.2-230.5,446.2 M-230.2,446.3C-230.2,446.4-230.2,446.4-230.2,446.3
		c-0.1,0-0.2,0-0.1-0.1C-230.4,446.3-230.2,446.3-230.2,446.3C-230.2,446.3-230.2,446.3-230.2,446.3 M-229.2,446.8v0.1
		c-0.3-0.3-0.6-0.6-0.9-0.8c-0.1-0.1-0.1-0.3-0.1-0.4s0-0.2,0-0.2c0.2,0.2,0.4,0.4,0.6,0.6c0.1,0.1,0.2,0.2,0.3,0.3
		C-229.2,446.4-229.2,446.6-229.2,446.8 M-229.1,447.1C-229.1,447-229.1,447-229.1,447.1c0.1,0,0.2,0,0.2,0
		C-229,447.1-229,447.1-229.1,447.1L-229.1,447.1 M-229,447.3C-229.1,447.3-229.1,447.3-229,447.3
		C-229.1,447.2-229.1,447.2-229,447.3C-229,447.2-229,447.2-229,447.3L-229,447.3 M-228.9,447.3c0-0.1-0.1-0.2,0-0.4v-0.1
		c0.1,0.1,0.3,0.3,0.4,0.4l0,0c0.1,0.1,0.2,0.2,0.2,0.5v0.1C-228.5,447.7-228.7,447.5-228.9,447.3 M-228,448.1
		C-228,448-228,448-228,448.1c0.1,0,0.2,0,0.2,0C-227.9,448.1-227.9,448.1-228,448.1L-228,448.1 M-227.9,448.3
		C-227.9,448.3-228,448.3-227.9,448.3C-228,448.2-227.9,448.2-227.9,448.3C-227.8,448.2-227.8,448.2-227.9,448.3
		C-227.8,448.3-227.8,448.3-227.9,448.3 M-227.6,448.4c-0.1-0.1-0.2-0.3-0.2-0.5c0.1,0.1,0.3,0.3,0.4,0.4c0,0,0,0,0.1,0.1l0,0
		c0,0,0,0,0.1,0.1s0.1,0.1,0.1,0.2v0.1L-227.6,448.4z M-226.4,449.4L-226.4,449.4h-0.1l-0.3-0.3c-0.1-0.1-0.1-0.2-0.1-0.3l0,0
		c0.1,0.1,0.2,0.2,0.3,0.3L-226.4,449.4L-226.4,449.4"/>
	<path class="st0" d="M-225.4,442.1l-0.6,0.3c-0.1,0-0.1,0-0.1-0.1l0.6-1c0-0.1,0.1-0.1,0.1-0.1v-0.1h0.1l0.2,0.2v0.1c0,0,0,0-0.1,0
		l-0.1,0.1l-0.3,0.4l0,0l0.4-0.2c0-0.1,0.1-0.2,0.1-0.2v-0.1h0.1l0.2,0.2v0.1c0,0,0,0-0.1,0l-0.1,0.1l-0.3,0.4l0,0
		c0.1-0.1,0.5-0.3,0.5-0.3l0.1-0.1c0,0,0,0,0-0.1h0.1l0.1,0.1v0.1c0,0,0,0-0.1,0l-1.2,0.7c0,0-0.1,0-0.1-0.1L-225.4,442.1
		L-225.4,442.1"/>
	<path class="st0" d="M-227,441.6C-227.1,441.6-227.1,441.6-227,441.6c0-0.1,0-0.1,0.1-0.1l0.1-0.1l0.5-0.7c0-0.1,0.1-0.1,0.1-0.1
		v-0.1h0.1l0.6,0.4c0,0,0,0,0,0.1l-0.1,0.1c0,0-0.1,0.1-0.1,0c0,0,0,0,0-0.1c0,0,0-0.1-0.1-0.2c-0.1,0-0.2-0.1-0.2-0.1
		c0,0.1-0.2,0.3-0.2,0.3v0.1c0,0,0.1,0.1,0.1,0h0.1v0.1l-0.1,0.2l-0.1,0.1v-0.1c0,0,0-0.1-0.1-0.1c0,0,0,0-0.1,0l-0.2,0.3
		c0,0.1,0,0.1,0,0.1l0.1,0.1c0.1,0,0.1,0.1,0.2,0c0.1,0,0.1-0.1,0.2-0.1c0,0,0,0,0,0.1c0,0-0.1,0.2-0.2,0.2h-0.1L-227,441.6z"/>
	<path class="st0" d="M-225.1,443.5L-225.1,443.5c0-0.1,0.1-0.1,0.1-0.1s0.1,0,0.1-0.1l0.8-0.4c0.1,0,0.1-0.1,0.1-0.1v-0.1h0.1
		l0.3,0.6v0.1l-0.1,0.1h-0.1c0,0,0,0,0-0.1c0,0,0-0.1,0-0.2s-0.1-0.2-0.1-0.2c-0.1,0-0.3,0.2-0.3,0.2s0,0,0,0.1c0,0,0,0.1,0.1,0.1
		h0.1c0,0,0,0.1-0.1,0.1l-0.2,0.1h-0.1v-0.1v-0.1c0,0,0,0-0.1,0l-0.3,0.2c-0.1,0-0.1,0.1,0,0.1v0.1c0,0.1,0.1,0.1,0.1,0.1
		c0.1,0,0.2,0,0.2,0v0.1l-0.2,0.1h-0.1L-225.1,443.5z"/>
	<path class="st0" d="M-224.2,446.5L-224.2,446.5c0.1,0,0.1,0,0.1,0s0.1,0,0.2,0l0.9,0.1c0.1,0,0.1,0,0.2,0h0.1c0,0,0.1,0,0.1,0.1
		v0.3c0,0,0,0.1-0.1,0c0,0,0,0-0.1-0.1c0,0-0.1,0-0.2,0s-0.9-0.1-0.9-0.1c-0.1,0-0.1,0-0.1,0.1l0,0c0,0.1,0,0.1,0,0.2
		c0.1,0.1,0.1,0.1,0.1,0.1s0,0-0.1,0h-0.2l-0.1-0.1L-224.2,446.5z"/>
	<path class="st0" d="M-223,445.9c0-0.2-0.3-0.3-0.6-0.3c-0.3,0-0.5,0.1-0.5,0.3c0,0.1,0.1,0.2,0.2,0.1c0.1,0,0.1,0,0.1-0.1
		c0,0,0-0.1,0.1,0c0,0,0,0,0,0.1c0,0,0,0.1,0,0.2s-0.1,0.1-0.1,0.1h-0.2c-0.1,0-0.1,0-0.1,0s0,0-0.1,0c0,0-0.1,0-0.1-0.1
		c-0.1-0.1-0.1-0.2-0.1-0.3c0-0.3,0.3-0.6,0.7-0.6c0.2,0,0.3,0,0.4,0.1C-223.1,445.5-223,445.7-223,445.9c0.1,0,0.1,0.1,0.1,0.1v0.1
		c0,0,0,0.1-0.1,0.1s-0.2,0-0.2,0c-0.1,0-0.1,0-0.1-0.1c0,0,0-0.1,0.1-0.1C-223.2,446.1-223,446-223,445.9"/>
	<path class="st0" d="M-225.5,449.9l0.7,0.6c0.1,0.1,0,0.1,0,0.1c-0.1,0.1-0.4,0-0.6-0.2c-0.3-0.3-0.4-0.5-0.2-0.6
		C-225.6,449.9-225.6,449.9-225.5,449.9 M-224.4,450.6C-224.4,450.5-224.4,450.5-224.4,450.6c0-0.1,0-0.1-0.1-0.1l-0.1-0.1l-0.6-0.6
		c-0.1,0-0.1-0.1-0.1-0.1v-0.1h-0.1l-0.2,0.2c-0.1,0.1-0.2,0.3-0.2,0.5c0,0.1,0.1,0.3,0.3,0.5c0.2,0.2,0.5,0.3,0.7,0.2
		c0.1,0,0.2-0.1,0.3-0.2L-224.4,450.6z"/>
	<path class="st0" d="M-224.6,442.7c0,0.1,0,0.1-0.1,0.1s-0.1,0-0.1-0.1s0-0.1,0.1-0.1S-224.6,442.7-224.6,442.7"/>
	<path class="st0" d="M-224.2,448.1l0.1-0.2v-0.1c-0.1,0-0.1-0.1-0.1-0.1h-0.1c0,0,0,0,0-0.1v-0.2c0,0,0-0.1,0.1,0
		c0,0,0,0.1,0.1,0.1l1.1,0.8l0.1,0.1c0,0,0,0-0.1,0h-1.3h-0.1h-0.1c0,0-0.1,0,0-0.1l0.1-0.3c0,0,0-0.1,0.1-0.1c0,0,0,0.1,0.1,0.1
		C-224.5,448.1-224.5,448.1-224.2,448.1C-224.4,448.1-224.2,448.1-224.2,448.1 M-224,447.9L-224,447.9l-0.1,0.2l0,0h0.4l0,0
		L-224,447.9z"/>
	<path class="st0" d="M-224.8,446.2c0-2.6-2.1-4.8-4.8-4.8s-4.8,2.1-4.8,4.8c0,2.6,2.1,4.8,4.8,4.8S-224.8,448.8-224.8,446.2
		 M-229.6,450.8c-2.5,0-4.6-2.1-4.6-4.6s2.1-4.6,4.6-4.6s4.6,2.1,4.6,4.6C-225,448.8-227,450.8-229.6,450.8"/>
	<path class="st0" d="M-236.8,446.2c0-4,3.2-7.2,7.2-7.2s7.2,3.2,7.2,7.2s-3.2,7.2-7.2,7.2C-233.6,453.4-236.8,450.2-236.8,446.2
		 M-229.6,453.6c4.1,0,7.4-3.3,7.4-7.4s-3.3-7.4-7.4-7.4s-7.4,3.3-7.4,7.4C-237,450.3-233.6,453.6-229.6,453.6"/>
	<path class="st0" d="M-229.6,438.3c-4.4,0-7.9,3.6-7.9,8c0,2.1,0.9,4.1,2.4,5.6s3.5,2.3,5.6,2.3s4.1-0.9,5.6-2.4s2.3-3.5,2.3-5.6
		C-221.7,441.8-225.2,438.3-229.6,438.3 M-222,446.2c0,2-0.8,3.9-2.2,5.4c-1.4,1.4-3.3,2.2-5.3,2.3c-2,0-3.9-0.8-5.4-2.2
		c-1.4-1.4-2.2-3.3-2.3-5.3c0-4.2,3.3-7.6,7.5-7.6C-225.5,438.6-222,442-222,446.2"/>
	<path class="st0" d="M-227.6,440.4l-0.2,0.6c0,0.1,0,0.1,0,0.2v0.1c0,0,0,0.1-0.1,0l-0.2-0.1c0,0-0.1,0,0-0.1c0,0,0,0,0.1-0.1
		l0.1-0.1l0.3-0.8c0-0.1,0-0.1,0-0.2v-0.1c0,0,0,0,0.1,0l0.2,0.1c0.1,0,0.1,0.1,0.1,0.2v0.7l0,0l0.2-0.4c0-0.1,0.1-0.1,0.1-0.1v-0.1
		c0,0,0,0,0.1,0l0.2,0.1c0,0,0,0,0,0.1c0,0,0,0-0.1,0.1l-0.1,0.1l-0.4,1c0,0.1-0.1,0.1-0.2,0.1s-0.1,0-0.1-0.1L-227.6,440.4
		C-227.5,440.4-227.6,440.4-227.6,440.4"/>
	<path class="st0" d="M-223.7,444.3l-0.6,0.2c-0.1,0-0.1,0-0.1,0.1c0,0,0,0-0.1,0.1h-0.1l-0.1-0.2v-0.1c0,0,0,0,0.1,0
		c0,0,0.1,0,0.2,0l0.9-0.2c0.1,0,0.1,0,0.1-0.1c0,0,0-0.1,0.1-0.1h0.1l0.1,0.2c0,0.1,0,0.1-0.1,0.2l-0.5,0.5l0,0l0.5-0.1
		c0.1,0,0.1,0,0.2,0c0,0,0-0.1,0.1-0.1h0.1l0.1,0.2v0.1c0,0,0,0-0.1,0c0,0-0.1,0-0.2,0l-1,0.3c-0.1,0-0.1,0-0.1-0.1s0-0.1,0-0.1
		L-223.7,444.3C-223.7,444.4-223.7,444.3-223.7,444.3"/>
	<path class="st0" d="M-224.2,449.2l-0.5-0.3c-0.1,0-0.1-0.1-0.1-0.1h-0.1v-0.1l0.1-0.2c0,0,0,0,0.1,0c0,0,0,0,0,0.1
		c0,0,0,0.1,0.1,0.1l0.8,0.5c0.1,0,0.1,0.1,0.1,0.1h0.1v0.1l-0.1,0.2c0,0.1-0.1,0-0.2,0l-0.7-0.1l0,0l0.4,0.2c0.1,0,0.1,0.1,0.1,0.1
		h0.1v0.1l-0.1,0.2c0,0,0,0-0.1,0c0,0,0,0,0-0.1c0,0,0-0.1-0.1-0.1l-0.9-0.6c-0.1-0.1-0.1-0.1,0-0.2c0,0,0-0.1,0.1-0.1L-224.2,449.2
		C-224.2,449.3-224.2,449.2-224.2,449.2"/>
</g>
<g>
	<path id="XMLID_24_" class="st0" d="M-118,451.8c-0.3,0.2-0.7,0.3-1,0.2c-0.3-0.2-0.5-0.3-0.4-0.4c1-0.2,1.7-0.7,2.1-1.5
		c-0.9,0.1-1.7,0.2-2.1,0.4c-0.3,0.1-0.3,0-0.3-0.2c0.1-0.5,0.3-0.8,0.8-0.7c0.1,0,0.3,0,0.3,0.1c0.4,0,0.9,0,1.4-0.1l0.1-0.7
		c-0.3,0-0.4-0.1-0.6-0.2c-0.4,0.4-0.8,0.6-1.2,0.6c-0.3-0.1-0.4-0.2-0.3-0.3c0.8-0.4,1.3-0.9,1.4-1.4h-1.3
		c-0.5,0.1-0.8,0.5-0.9,1.1v1.5c0,0.6,0.1,1.2,0.2,1.6c0.1,0.2,0.3,0.3,0.7,0.3h4.9c-0.6-0.3-1.3-0.6-2-1c-0.3-0.1-0.3-0.3-0.1-0.6
		c0.1-0.2,0.3-0.2,0.6-0.1c0.6,0.5,1.1,0.9,1.6,1.4c0.1,0.1,0.1,0.3,0,0.3c1.3,0,2.1,0,2.3,0.1c-0.1,0.3-0.3,0.5-0.5,0.8
		c-0.4,0.3-0.8,0.3-1.2,0.3c-1.5-0.3-2.4-0.5-3.1-0.5c-1.8-0.1-2.9,0-3.5,0.3c-0.2,0.1-0.4,0-0.7-0.2c-0.2-0.1-0.3-0.3-0.3-0.5
		c0.2-0.3,0.3-0.5,0.3-0.7c0.1-2,0-3.2-0.3-3.8c-0.1-0.3-0.1-0.5,0-0.6c0.1-0.3,0.3-0.3,0.7-0.3c0.3,0.1,0.6,0.2,0.9,0.3
		c3.3,0,5.4,0,6.1,0.1c0.3,0.1,0.3,0.3,0.1,0.4c-0.4,0.1-1.9,0.2-4.3,0.1c0.3,0.3,0.4,0.4,0.2,0.7c1,0,2,0,2.9,0.1
		c0.2,0.3,0.1,0.3-0.2,0.4h-1.7l-0.1,0.7c1.2,0,2.1,0,2.7,0.1c0.3,0.1,0.3,0.3,0,0.4c-0.9,0-1.9,0-2.8-0.1
		C-116.8,450.8-117.3,451.4-118,451.8"/>
	<path id="XMLID_20_" class="st0" d="M-106.2,450.7c-0.2-0.3-0.5-0.5-0.9-0.6c-0.2-0.2-0.1-0.3,0.3-0.3c0.3,0,0.7,0.1,0.9,0.3
		c0.5-0.3,0.6-0.4,0.3-0.5c-0.4-0.2-0.9-0.2-1.3,0c-0.4,0.1-0.8,0.3-1.1,0.5c-0.3,0.1-0.4,0.1-0.4-0.2c0.1-0.3,0.3-0.4,0.3-0.5
		c0.3-0.3,0.5-0.3,0.9-0.2c0.3-0.1,0.6-0.2,0.9-0.3c0.3,0.1,0.7,0.2,1.2,0.3c0.2-0.1,0.3-0.1,0.5-0.1c0.2,0,0.3,0.2,0.6,0.5
		c0.2,0.3,0,0.5-0.4,0.5c-0.4,0-0.8,0.1-1,0.2c0.1,0.1,0.2,0.2,0.3,0.4c2,0,3.3,0,4.3,0.1c-0.3,0.9-0.8,1.2-1.5,0.9
		c-0.7-0.3-1.5-0.4-2.6-0.4c0.1,1.3-0.6,2-2.1,2c-0.8-0.1-1.4-0.4-1.9-0.9c0-0.1,0-0.1,0.1-0.1c0.4,0.1,0.8,0.2,1.1,0.3
		c1.2,0,1.8-0.4,1.7-1.3c-2,0.1-3.4,0.2-4.5,0.4c-0.4,0.2-0.6,0-0.4-0.6c0.2-0.3,0.4-0.4,0.7-0.5c0.1,0,0.3,0,0.3,0.1
		C-108.7,450.8-107.4,450.8-106.2,450.7 M-108.8,446.8c0.3-0.1,0.4,0,0.5,0.3c0.1,0.3,0.3,0.7,0.3,1.1c0.8,0.1,1.8,0.1,2.9,0
		c0.3-0.4,0.4-0.9,0.5-1.5c0.1-0.3,0.3-0.3,0.6-0.2c0.4,0.2,0.5,0.4,0.3,0.7c-0.3,0.4-0.5,0.8-0.9,1c0.5,0,0.9,0,1.3-0.1
		c0.2-0.1,0.3-0.1,0.6-0.2c0.4,0,0.6,0.1,0.7,0.3c0.1,0.4,0,0.9-0.3,1.4c-0.3,0.3-0.4,0.4-0.5,0.2c-0.1-0.3-0.1-0.6-0.1-0.9
		c0-0.1-0.1-0.2-0.3-0.2c-1.1-0.1-2.1-0.1-3.2-0.1s-2.1,0-2.6,0.1c-0.4,0.1-0.6,0.4-0.7,1c-0.2,0.4-0.3,0.5-0.5,0.2
		c-0.1-0.3-0.1-0.5-0.2-0.8c-0.1-0.4,0-0.8,0.1-0.9c0.3-0.3,0.4-0.3,0.6-0.3c0.3,0.1,0.8,0.2,1.3,0.2c-0.4-0.3-0.7-0.6-0.9-0.9
		C-109.4,447.1-109.2,447-108.8,446.8 M-106.8,446.5c0.4-0.1,0.6,0.1,0.7,0.5v0.9c0,0-0.1,0.1-0.1,0.2c-0.4-0.2-0.8-0.5-0.9-1
		C-107.1,446.6-106.9,446.5-106.8,446.5"/>
	<path id="XMLID_13_" class="st0" d="M-95.7,448.8c0.3,0.1,0.3,0.2,0.3,0.4c-0.1,0.4-0.1,0.8-0.1,1.1v2.4c-0.1,0.2-0.3,0.3-0.5,0.3
		c-0.3,0-0.3-0.1-0.3-0.3v-1.4h-1.4c-0.2,0.5-0.4,0.9-0.9,1.3c-0.4,0.3-0.8,0.4-1.2,0.3c-0.4-0.2-0.7-0.3-0.7-0.5
		c0-0.1,0.1-0.1,0.3-0.2c1.2-0.3,1.8-0.9,1.7-2.1c0-0.3-0.1-0.7-0.2-1c-0.1-0.3,0.1-0.5,0.4-0.5c0.1,0.1,0.3,0.1,0.5,0.2h1.2
		C-96.3,448.8-96,448.8-95.7,448.8 M-96.8,447.7c-0.3-0.3-0.4-0.5-0.5-0.6c-0.2-0.3,0-0.4,0.5-0.6c0.2-0.1,0.3,0,0.4,0.1
		c0.1,0.3,0.2,0.7,0.3,1.1c0.4,0,0.9,0,1.6-0.1c0.2-0.4,0.3-0.8,0.4-1c0.2-0.1,0.3-0.2,0.5-0.1c0.2,0.1,0.3,0.2,0.3,0.3
		c0,0.3-0.2,0.5-0.6,0.8c0.5,0.1,1,0.1,1.5,0.1c1.5,0.1,2.2,0.2,2.2,0.3c-0.1,0.1-0.2,0.3-0.4,0.5c-0.4,0.3-0.8,0.4-1,0.3
		c-0.9-0.3-2.1-0.5-3.5-0.6c-2.6,0.1-4.3,0.3-5.1,0.5c-0.3,0.1-0.3,0-0.3-0.2c0.2-0.4,0.4-0.8,0.8-0.9
		C-99,447.7-98,447.7-96.8,447.7 M-97.6,450.8h1.3v-0.5h-1.2L-97.6,450.8z M-97.5,449.9h1.2v-0.3c0-0.1,0-0.1-0.1-0.2h-0.9
		C-97.5,449.4-97.5,449.5-97.5,449.9 M-92.8,450.5c0-0.6-0.1-0.9-0.2-1.2c0-0.3,0.1-0.4,0.3-0.4c0.5,0,0.8,0.2,0.8,0.5
		c-0.1,0.1-0.1,0.2-0.1,0.4v1.7c0.1,0.3,0.1,0.5,0.1,0.7c-0.1,0.3-0.2,0.6-0.3,0.8c-0.3,0.3-0.7,0.3-0.9,0.3
		c-0.9-0.2-1.5-0.5-1.7-1.1c0-0.1,0.3,0,0.9,0.3c0.3,0.1,0.6,0,0.9-0.3c0.3-0.2,0.3-0.4,0.3-0.8V450.5z M-94.6,450.2
		c0-0.3,0-0.6-0.1-0.9c0-0.2,0.2-0.3,0.4-0.3c0.3,0.1,0.4,0.2,0.4,0.4v1.5c0,0.4-0.2,0.6-0.6,0.6C-94.5,451.5-94.6,451-94.6,450.2"
		/>
	<path id="XMLID_6_" class="st0" d="M-89.4,449.2c0.3-0.2,0.7-0.2,1.1,0.1c0.3,0.1,0.6,0.3,0.9,0.4c0.5,0.2,0.8,0.3,0.8,0.3
		c0,0.1,0,0.1-0.1,0.2c-0.8,0.2-1.6,0.1-2.6-0.2C-89.7,449.8-89.7,449.5-89.4,449.2 M-86.3,450.7c0.3-0.1,0.3,0,0.3,0.3
		c-0.2,0.3-0.3,0.5-0.6,0.8c-0.5,0.4-1,0.8-1.5,0.9c-0.3,0-0.6-0.1-0.7-0.3c-0.2-0.3-0.1-0.4,0.2-0.7
		C-87.7,451.5-86.9,451.2-86.3,450.7 M-87.8,447.1c0.4,0.3,0.8,0.4,1.2,0.7c0.5,0.3,0.7,0.4,0.6,0.6c-0.8,0.1-1.6-0.1-2.4-0.4
		c-0.4-0.1-0.4-0.3-0.2-0.8C-88.3,447.1-88,447-87.8,447.1 M-84,446.9c0.3,0.1,0.7,0.2,0.9,0.1c0.7-0.3,1-0.1,0.9,0.3
		c-0.1,0.3-0.1,0.4-0.2,0.7c-0.1,0.4,0,0.8,0.3,0.9c0.6,0.3,1.1,0.3,1.7,0.1c0.3-0.1,0.7-0.3,1.1-0.4c-0.3,1.1-0.6,1.7-1.2,1.7
		c-0.4,0-1-0.1-1.6-0.3c-0.7-0.3-1-0.6-1-1.1c0.1-0.5,0.1-0.9,0-0.9c0-0.3-0.2-0.3-0.6-0.3c-0.3,0-0.5,0.2-0.4,0.5
		c-0.1,0.4-0.2,0.9-0.3,1.4c-0.3,0.4-0.6,0.7-1.1,0.8c-0.4,0.1-0.8-0.1-0.9-0.4c-0.1-0.2,0-0.3,0.3-0.3c0.8-0.1,1.2-0.4,1.3-1
		c0.1-0.3,0-0.7-0.1-0.9C-85.1,446.8-84.7,446.6-84,446.9 M-84.5,450.3c0.2,0.1,0.6,0.1,1.2,0.1c0.4,0,0.8,0,1-0.1
		c0.9-0.2,1.2,0.1,1.1,0.7c-0.1,0.5-0.1,1.1-0.2,1.7c-0.1,0.4-0.4,0.6-1,0.4c-0.6-0.3-1.3-0.3-2,0c-0.6,0.2-0.9,0-0.9-0.5
		c-0.1-0.6-0.1-1.1-0.2-1.7C-85.5,450.4-85.1,450.1-84.5,450.3 M-82.6,450.9h-1.6c-0.3,0-0.4,0.3-0.3,0.9c0.1,0.3,0.2,0.4,0.4,0.3
		h1.5c0.3,0.1,0.3,0,0.4-0.3v-0.8C-82.2,451.1-82.3,451-82.6,450.9"/>
	<path id="XMLID_5_" class="st0" d="M-114.1,444h-4.4v-0.3c0.7-0.1,0.9-0.3,0.9-0.9V440c0-0.7-0.1-0.8-0.7-0.9v-0.3h3.9l0.2,1.2
		l-0.2,0.1c-0.3-0.7-0.6-0.9-1.4-0.9h-0.9v1.9h0.8c0.5,0,0.7-0.2,0.9-0.8h0.3v1.9h-0.3c-0.2-0.6-0.3-0.7-0.9-0.8h-0.8v1.4
		c0,0.6,0.1,0.7,1,0.7c0.9,0,1.1-0.2,1.6-1l0.2,0.2L-114.1,444z"/>
	<path id="XMLID_4_" class="st0" d="M-105.4,444v-0.3c0.3-0.1,0.5-0.2,0.5-0.6l0,0l-0.3-3.2l-1.9,4.4l-1.9-4.3l-0.3,2.6
		c0,0.2,0,0.4,0,0.5c0,0.5,0.2,0.7,0.8,0.8v0.3h-2.2v-0.3c0.6-0.2,0.8-0.3,0.9-0.8l0.4-2.6c0.1-0.3,0.1-0.6,0.1-0.8
		c0-0.3-0.3-0.5-0.7-0.5v-0.2h1.5l1.6,3.7l1.5-3.7h1.5v0.2c-0.5,0-0.7,0.2-0.7,0.5c0,0.1,0,0.1,0,0.2l0.3,3.4c0,0.3,0.2,0.4,0.6,0.5
		v0.3L-105.4,444L-105.4,444z"/>
	<path id="XMLID_3_" class="st0" d="M-114,445.7c1.1-0.5,1.5-1.3,1.5-2.1V440c0-0.6-0.2-0.8-0.9-0.9v-0.3h2.6v0.3
		c-0.6,0.1-0.8,0.3-0.9,0.8l-0.1,3.3C-111.7,444.7-112.6,445.6-114,445.7L-114,445.7z"/>
	<path id="XMLID_2_" class="st0" d="M-118.8,438.9c-1-2.1-3.5-3-5.7-2.1c-2.4,0.9-3.6,3.6-2.6,6c0.9,2.4,3.6,3.6,6,2.6l0,0v-0.2
		c-2.1,0.8-4.5-0.3-5.4-2.4c-0.8-2.2,0.3-4.6,2.5-5.5c1.9-0.7,3.8,0,5,1.5h-2.1v0.3c0.7,0.1,0.9,0.3,0.9,0.9l0.1,2.9l-3.4-4h-1.4
		v0.3c0.8,0.3,0.9,0.4,0.9,1.3l-0.1,2.6c0,0.6-0.2,0.8-0.9,0.9v0.2h2.6v-0.3c-0.8,0-0.9-0.3-0.9-0.9l-0.1-2.9l3.5,4.2l0.3-0.3
		l0.2-3.8c0-0.6,0.2-0.8,0.9-0.9L-118.8,438.9L-118.8,438.9z"/>
</g>
</svg>
