<?xml version="1.0" encoding="utf-8"?>
<!-- Generator: Adobe Illustrator 19.0.0, SVG Export Plug-In . SVG Version: 6.00 Build 0)  -->
<svg version="1.1" id="图层_1" xmlns="http://www.w3.org/2000/svg" xmlns:xlink="http://www.w3.org/1999/xlink" x="0px" y="0px"
	 viewBox="-269 411.1 56.4 20.8" style="enable-background:new -269 411.1 56.4 20.8;" xml:space="preserve">
<style type="text/css">
	.st0{fill:#FFFFFF;}
</style>
<path id="XMLID_24_" class="st0" d="M-257.8,429.5c-0.4,0.2-0.8,0.3-1.2,0.2c-0.4-0.2-0.6-0.4-0.5-0.5c1.2-0.2,2-0.8,2.4-1.8
	c-1.1,0.1-2,0.2-2.5,0.5c-0.3,0.1-0.4,0-0.3-0.2c0.1-0.6,0.4-0.9,0.9-0.8c0.1,0,0.3,0,0.4,0.1c0.5,0,1,0,1.6-0.1l0.1-0.8
	c-0.3,0-0.5-0.1-0.7-0.2c-0.5,0.5-0.9,0.7-1.4,0.7c-0.3-0.1-0.5-0.2-0.4-0.3c0.9-0.5,1.5-1,1.6-1.6h-1.5c-0.6,0.1-0.9,0.6-1,1.3v1.7
	c0,0.7,0.1,1.4,0.2,1.9c0.1,0.2,0.4,0.3,0.8,0.3h5.7c-0.7-0.3-1.5-0.7-2.3-1.2c-0.3-0.1-0.3-0.4-0.1-0.7c0.1-0.2,0.4-0.2,0.7-0.1
	c0.7,0.6,1.3,1.1,1.9,1.6c0.1,0.1,0.1,0.3,0,0.4c1.5,0,2.4,0,2.7,0.1c-0.1,0.3-0.3,0.6-0.6,0.9c-0.5,0.3-0.9,0.4-1.4,0.3
	c-1.7-0.4-2.8-0.6-3.6-0.6c-2.1-0.1-3.4,0-4.1,0.3c-0.2,0.1-0.5,0-0.8-0.2c-0.2-0.1-0.3-0.3-0.3-0.6c0.2-0.3,0.3-0.6,0.3-0.8
	c0.1-2.3,0-3.8-0.3-4.4c-0.1-0.3-0.1-0.6,0-0.7c0.1-0.3,0.4-0.4,0.8-0.4c0.4,0.1,0.7,0.2,1.1,0.3c3.9,0,6.3,0,7.1,0.1
	c0.3,0.1,0.3,0.3,0.1,0.5c-0.5,0.1-2.2,0.2-5,0.1c0.4,0.3,0.5,0.5,0.2,0.8c1.2,0,2.3,0,3.4,0.1c0.2,0.3,0.1,0.4-0.2,0.5h-2l-0.1,0.8
	c1.4,0,2.4,0,3.2,0.1c0.3,0.1,0.3,0.3,0,0.5c-1.1,0-2.2,0-3.3-0.1C-256.4,428.4-257,429.1-257.8,429.5"/>
<path id="XMLID_20_" class="st0" d="M-244.1,428.3c-0.2-0.3-0.6-0.6-1.1-0.7c-0.2-0.2-0.1-0.3,0.3-0.4c0.4,0,0.8,0.1,1.1,0.3
	c0.6-0.3,0.7-0.5,0.3-0.6c-0.5-0.2-1-0.2-1.5,0c-0.5,0.1-0.9,0.3-1.3,0.6c-0.3,0.1-0.5,0.1-0.5-0.2c0.1-0.3,0.3-0.5,0.4-0.6
	c0.3-0.3,0.6-0.3,1-0.2c0.3-0.1,0.7-0.2,1.1-0.3c0.3,0.1,0.8,0.2,1.4,0.3c0.2-0.1,0.4-0.1,0.6-0.1s0.4,0.2,0.7,0.6
	c0.2,0.4,0,0.6-0.5,0.6s-0.9,0.1-1.2,0.2c0.1,0.1,0.2,0.2,0.3,0.5c2.3,0,3.9,0,5,0.1c-0.3,1.1-0.9,1.4-1.8,1.1
	c-0.8-0.3-1.8-0.5-3-0.5c0.1,1.5-0.7,2.3-2.5,2.3c-0.9-0.1-1.6-0.5-2.2-1c0-0.1,0-0.1,0.1-0.1c0.5,0.1,0.9,0.2,1.3,0.3
	c1.4,0,2.1-0.5,2-1.5c-2.3,0.1-4,0.2-5.3,0.5c-0.5,0.2-0.7,0-0.5-0.7c0.2-0.3,0.5-0.5,0.8-0.6c0.1,0,0.3,0,0.4,0.1
	C-247,428.4-245.5,428.4-244.1,428.3 M-247.1,423.7c0.3-0.1,0.5,0,0.6,0.3c0.1,0.3,0.3,0.8,0.4,1.3c0.9,0.1,2.1,0.1,3.4,0
	c0.3-0.5,0.5-1.1,0.6-1.7c0.1-0.3,0.4-0.4,0.7-0.2c0.5,0.2,0.6,0.5,0.4,0.8c-0.3,0.5-0.6,0.9-1.1,1.2c0.6,0,1.1,0,1.5-0.1
	c0.2-0.1,0.4-0.1,0.7-0.2c0.5,0,0.7,0.1,0.8,0.4c0.1,0.5,0,1-0.3,1.6c-0.3,0.4-0.5,0.5-0.6,0.2c-0.1-0.3-0.1-0.7-0.1-1.1
	c0-0.1-0.1-0.2-0.3-0.2c-1.3-0.1-2.5-0.1-3.8-0.1s-2.4,0-3.1,0.1c-0.5,0.1-0.7,0.5-0.8,1.2c-0.2,0.5-0.4,0.6-0.6,0.2
	c-0.1-0.3-0.1-0.6-0.2-0.9c-0.1-0.5,0-0.9,0.1-1c0.3-0.3,0.5-0.4,0.7-0.3c0.4,0.1,0.9,0.2,1.5,0.2c-0.5-0.4-0.8-0.7-1-1
	C-247.8,424.1-247.6,423.9-247.1,423.7 M-244.7,423.3c0.5-0.1,0.7,0.1,0.8,0.6v1c0,0-0.1,0.1-0.1,0.2c-0.5-0.2-0.9-0.6-1.1-1.2
	C-245.1,423.5-244.9,423.4-244.7,423.3"/>
<path id="XMLID_13_" class="st0" d="M-231.8,426c0.3,0.1,0.4,0.2,0.4,0.5c-0.1,0.5-0.1,0.9-0.1,1.3v2.8c-0.1,0.2-0.3,0.3-0.6,0.4
	c-0.3,0-0.4-0.1-0.4-0.3v-1.6h-1.6c-0.2,0.6-0.5,1.1-1,1.5c-0.5,0.3-0.9,0.5-1.4,0.4c-0.5-0.2-0.8-0.4-0.8-0.6
	c0-0.1,0.1-0.1,0.4-0.2c1.4-0.3,2.1-1.1,2-2.4c0-0.4-0.1-0.8-0.2-1.2c-0.1-0.4,0.1-0.6,0.5-0.6c0.1,0.1,0.3,0.1,0.6,0.2h1.4
	C-232.4,426-232.1,426-231.8,426 M-233.1,424.8c-0.3-0.3-0.5-0.6-0.6-0.7c-0.2-0.3,0-0.5,0.6-0.7c0.2-0.1,0.4,0,0.5,0.1
	c0.1,0.4,0.2,0.8,0.4,1.3c0.5,0,1.1,0,1.9-0.1c0.2-0.5,0.4-0.9,0.5-1.2c0.2-0.1,0.4-0.2,0.6-0.1s0.3,0.2,0.4,0.4
	c0,0.3-0.2,0.6-0.7,0.9c0.6,0.1,1.2,0.1,1.8,0.1c1.7,0.1,2.6,0.2,2.6,0.3c-0.1,0.1-0.2,0.3-0.5,0.6c-0.5,0.4-0.9,0.5-1.2,0.4
	c-1.1-0.4-2.4-0.6-4.1-0.7c-3,0.1-5,0.3-6,0.6c-0.3,0.1-0.4,0-0.3-0.2c0.2-0.5,0.5-0.9,0.9-1.1
	C-235.6,424.7-234.5,424.8-233.1,424.8 M-234,428.4h1.5v-0.6h-1.4L-234,428.4z M-233.9,427.3h1.4v-0.4c0-0.1,0-0.1-0.1-0.2h-1.1
	C-233.9,426.7-233.9,426.9-233.9,427.3 M-228.4,428c0-0.7-0.1-1.1-0.2-1.4c0-0.3,0.1-0.5,0.4-0.5c0.6,0,0.9,0.2,0.9,0.6
	c-0.1,0.1-0.1,0.2-0.1,0.5v2c0.1,0.3,0.1,0.6,0.1,0.8c-0.1,0.4-0.2,0.7-0.4,0.9c-0.4,0.3-0.8,0.4-1.1,0.3c-1.1-0.2-1.7-0.6-2-1.3
	c0-0.1,0.4,0,1.1,0.3c0.4,0.1,0.7,0,1-0.3c0.3-0.2,0.4-0.5,0.3-0.9V428z M-230.5,427.7c0-0.4,0-0.7-0.1-1c0-0.2,0.2-0.3,0.5-0.3
	c0.3,0.1,0.5,0.2,0.5,0.5v1.7c0,0.5-0.2,0.7-0.7,0.7C-230.4,429.2-230.5,428.6-230.5,427.7"/>
<path id="XMLID_6_" class="st0" d="M-224.4,426.5c0.3-0.2,0.8-0.2,1.3,0.1c0.3,0.1,0.7,0.3,1.1,0.5c0.6,0.2,0.9,0.3,0.9,0.4
	s0,0.1-0.1,0.2c-0.9,0.2-1.9,0.1-3.1-0.2C-224.7,427.2-224.7,426.9-224.4,426.5 M-220.7,428.3c0.3-0.1,0.4,0,0.3,0.3
	c-0.2,0.3-0.4,0.6-0.7,0.9c-0.6,0.5-1.2,0.9-1.7,1.1c-0.4,0-0.7-0.1-0.8-0.3c-0.2-0.3-0.1-0.5,0.2-0.8
	C-222.4,429.2-221.5,428.8-220.7,428.3 M-222.5,424.1c0.5,0.3,0.9,0.5,1.4,0.8c0.6,0.3,0.8,0.5,0.7,0.7c-0.9,0.1-1.9-0.1-2.8-0.5
	c-0.5-0.1-0.5-0.4-0.2-0.9C-223.1,424-222.8,423.9-222.5,424.1 M-218.1,423.8c0.4,0.1,0.8,0.2,1.1,0.1c0.8-0.3,1.2-0.1,1.1,0.4
	c-0.1,0.3-0.1,0.5-0.2,0.8c-0.1,0.5,0,0.9,0.3,1c0.7,0.3,1.3,0.4,2,0.1c0.3-0.1,0.8-0.3,1.3-0.5c-0.3,1.3-0.7,2-1.4,2
	c-0.5,0-1.2-0.1-1.9-0.4c-0.8-0.3-1.2-0.7-1.2-1.3c0.1-0.6,0.1-1,0-1.1c0-0.3-0.2-0.4-0.7-0.4c-0.4,0-0.6,0.2-0.5,0.6
	c-0.1,0.5-0.2,1.1-0.3,1.6c-0.3,0.5-0.7,0.8-1.3,0.9c-0.5,0.1-0.9-0.1-1.1-0.5c-0.1-0.2,0-0.3,0.3-0.4c0.9-0.1,1.4-0.5,1.5-1.2
	c0.1-0.4,0-0.8-0.1-1.1C-219.3,423.7-218.9,423.5-218.1,423.8 M-218.6,427.8c0.2,0.1,0.7,0.1,1.4,0.1c0.5,0,0.9,0,1.2-0.1
	c1-0.2,1.4,0.1,1.3,0.8c-0.1,0.6-0.1,1.3-0.2,2c-0.1,0.5-0.5,0.7-1.2,0.5c-0.7-0.3-1.5-0.3-2.3,0c-0.7,0.2-1.1,0-1.1-0.6
	c-0.1-0.7-0.1-1.3-0.2-2C-219.8,427.9-219.4,427.6-218.6,427.8 M-216.4,428.5h-1.9c-0.3,0-0.5,0.4-0.4,1.1c0.1,0.3,0.2,0.5,0.5,0.4
	h1.7c0.3,0.1,0.4,0,0.5-0.3v-0.9C-216,428.7-216.1,428.6-216.4,428.5"/>
<path id="XMLID_5_" class="st0" d="M-253.3,420.4h-5.1v-0.3c0.8-0.1,1-0.3,1-1v-3.3c0-0.8-0.1-0.9-0.8-1.1v-0.3h4.6l0.2,1.4
	l-0.2,0.1c-0.4-0.8-0.7-1-1.6-1h-1.1v2.2h0.9c0.6,0,0.8-0.2,1-0.9h0.3v2.2h-0.3c-0.2-0.7-0.4-0.8-1-0.9h-0.9v1.6
	c0,0.7,0.1,0.8,1.2,0.8c1,0,1.3-0.2,1.9-1.2l0.2,0.2L-253.3,420.4z"/>
<path id="XMLID_4_" class="st0" d="M-243.1,420.4v-0.3c0.4-0.1,0.6-0.2,0.6-0.7l0,0l-0.4-3.8l-2.2,5.1l-2.2-5l-0.3,3
	c0,0.2,0,0.5,0,0.6c0,0.6,0.2,0.8,0.9,0.9v0.3h-2.6v-0.4c0.7-0.2,0.9-0.4,1-0.9l0.5-3.1c0.1-0.4,0.1-0.7,0.1-0.9
	c0-0.4-0.3-0.6-0.8-0.6v-0.2h1.8l1.9,4.3l1.8-4.3h1.8v0.2c-0.6,0-0.8,0.2-0.8,0.6c0,0.1,0,0.1,0,0.2l0.4,4c0,0.4,0.2,0.5,0.7,0.6
	v0.3h-2.2V420.4z"/>
<path id="XMLID_3_" class="st0" d="M-253.2,422.4c1.3-0.6,1.8-1.5,1.8-2.5v-4.2c0-0.7-0.2-0.9-1.1-1v-0.3h3.1v0.3
	c-0.7,0.1-0.9,0.3-1,0.9l-0.1,3.9c0,1.8-1,2.8-2.6,3L-253.2,422.4z"/>
<path id="XMLID_2_" class="st0" d="M-258.8,414.4c-1.2-2.4-4.1-3.5-6.7-2.5c-2.8,1.1-4.2,4.2-3.1,7s4.2,4.2,7,3.1l0,0v-0.2
	c-2.5,0.9-5.3-0.3-6.3-2.8c-0.9-2.6,0.3-5.4,2.9-6.4c2.2-0.8,4.5,0,5.8,1.8h-2.4v0.3c0.8,0.1,1,0.3,1.1,1l0.1,3.4l-4-4.7h-1.6v0.3
	c0.9,0.3,1,0.5,1,1.5l-0.1,3c0,0.7-0.2,0.9-1.1,1v0.2h3v-0.3c-0.9,0-1.1-0.3-1.1-1l-0.1-3.4l4.1,4.9l0.4-0.3l0.2-4.5
	c0-0.7,0.2-0.9,1-1L-258.8,414.4L-258.8,414.4z"/>
</svg>
