<?xml version="1.0" encoding="utf-8"?>
<!-- Generator: Adobe Illustrator 19.0.0, SVG Export Plug-In . SVG Version: 6.00 Build 0)  -->
<svg version="1.1" id="图层_1" xmlns="http://www.w3.org/2000/svg" xmlns:xlink="http://www.w3.org/1999/xlink" x="0px" y="0px"
	 viewBox="0 0 56.4 20.8" style="enable-background:new 0 0 56.4 20.8;" xml:space="preserve">
<style type="text/css">
	.st0{fill:#221F20;}
	.st1{fill:#E83B19;}
</style>
<path id="XMLID_24_" class="st0" d="M11.2,18.4c-0.4,0.2-0.8,0.3-1.2,0.2c-0.4-0.2-0.6-0.4-0.5-0.5c1.2-0.2,2-0.8,2.4-1.8
	c-1.1,0.1-2,0.2-2.5,0.5c-0.3,0.1-0.4,0-0.3-0.2c0.1-0.6,0.4-0.9,0.9-0.8c0.1,0,0.3,0,0.4,0.1c0.5,0,1,0,1.6-0.1l0.1-0.8
	c-0.3,0-0.5-0.1-0.7-0.2c-0.5,0.5-0.9,0.7-1.4,0.7c-0.3-0.1-0.5-0.2-0.4-0.3c0.9-0.5,1.5-1,1.6-1.6H9.7c-0.6,0.1-0.9,0.6-1,1.3v1.7
	c0,0.7,0.1,1.4,0.2,1.9c0.1,0.2,0.4,0.3,0.8,0.3h5.7c-0.7-0.3-1.5-0.7-2.3-1.2c-0.3-0.1-0.3-0.4-0.1-0.7c0.1-0.2,0.4-0.2,0.7-0.1
	c0.7,0.6,1.3,1.1,1.9,1.6c0.1,0.1,0.1,0.3,0,0.4c1.5,0,2.4,0,2.7,0.1c-0.1,0.3-0.3,0.6-0.6,0.9c-0.5,0.3-0.9,0.4-1.4,0.3
	c-1.7-0.4-2.8-0.6-3.6-0.6c-2.1-0.1-3.4,0-4.1,0.3c-0.2,0.1-0.5,0-0.8-0.2c-0.2-0.1-0.3-0.3-0.3-0.6c0.2-0.3,0.3-0.6,0.3-0.8
	c0.1-2.3,0-3.8-0.3-4.4c-0.1-0.3-0.1-0.6,0-0.7c0.1-0.3,0.4-0.4,0.8-0.4C8.7,12.8,9,12.9,9.4,13c3.9,0,6.3,0,7.1,0.1
	c0.3,0.1,0.3,0.3,0.1,0.5c-0.5,0.1-2.2,0.2-5,0.1c0.4,0.3,0.5,0.5,0.2,0.8c1.2,0,2.3,0,3.4,0.1c0.2,0.3,0.1,0.4-0.2,0.5h-2l-0.1,0.8
	c1.4,0,2.4,0,3.2,0.1c0.3,0.1,0.3,0.3,0,0.5c-1.1,0-2.2,0-3.3-0.1C12.6,17.3,12,18,11.2,18.4"/>
<path id="XMLID_20_" class="st0" d="M24.9,17.2c-0.2-0.3-0.6-0.6-1.1-0.7c-0.2-0.2-0.1-0.3,0.3-0.4c0.4,0,0.8,0.1,1.1,0.3
	c0.6-0.3,0.7-0.5,0.3-0.6c-0.5-0.2-1-0.2-1.5,0c-0.5,0.1-0.9,0.3-1.3,0.6c-0.3,0.1-0.5,0.1-0.5-0.2c0.1-0.3,0.3-0.5,0.4-0.6
	c0.3-0.3,0.6-0.3,1-0.2c0.3-0.1,0.7-0.2,1.1-0.3c0.3,0.1,0.8,0.2,1.4,0.3c0.2-0.1,0.4-0.1,0.6-0.1c0.2,0,0.4,0.2,0.7,0.6
	c0.2,0.4,0,0.6-0.5,0.6c-0.5,0-0.9,0.1-1.2,0.2c0.1,0.1,0.2,0.2,0.3,0.5c2.3,0,3.9,0,5,0.1c-0.3,1.1-0.9,1.4-1.8,1.1
	c-0.8-0.3-1.8-0.5-3-0.5c0.1,1.5-0.7,2.3-2.5,2.3c-0.9-0.1-1.6-0.5-2.2-1c0-0.1,0-0.1,0.1-0.1c0.5,0.1,0.9,0.2,1.3,0.3
	c1.4,0,2.1-0.5,2-1.5c-2.3,0.1-4,0.2-5.3,0.5c-0.5,0.2-0.7,0-0.5-0.7c0.2-0.3,0.5-0.5,0.8-0.6c0.1,0,0.3,0,0.4,0.1
	C22,17.3,23.5,17.3,24.9,17.2 M21.9,12.6c0.3-0.1,0.5,0,0.6,0.3c0.1,0.3,0.3,0.8,0.4,1.3c0.9,0.1,2.1,0.1,3.4,0
	c0.3-0.5,0.5-1.1,0.6-1.7c0.1-0.3,0.4-0.4,0.7-0.2c0.5,0.2,0.6,0.5,0.4,0.8c-0.3,0.5-0.6,0.9-1.1,1.2c0.6,0,1.1,0,1.5-0.1
	c0.2-0.1,0.4-0.1,0.7-0.2c0.5,0,0.7,0.1,0.8,0.4c0.1,0.5,0,1-0.3,1.6c-0.3,0.4-0.5,0.5-0.6,0.2c-0.1-0.3-0.1-0.7-0.1-1.1
	c0-0.1-0.1-0.2-0.3-0.2c-1.3-0.1-2.5-0.1-3.8-0.1c-1.3,0-2.4,0-3.1,0.1c-0.5,0.1-0.7,0.5-0.8,1.2c-0.2,0.5-0.4,0.6-0.6,0.2
	c-0.1-0.3-0.1-0.6-0.2-0.9c-0.1-0.5,0-0.9,0.1-1c0.3-0.3,0.5-0.4,0.7-0.3c0.4,0.1,0.9,0.2,1.5,0.2c-0.5-0.4-0.8-0.7-1-1
	C21.2,13,21.4,12.8,21.9,12.6 M24.3,12.2c0.5-0.1,0.7,0.1,0.8,0.6v1C25.1,13.8,25,13.9,25,14c-0.5-0.2-0.9-0.6-1.1-1.2
	C23.9,12.4,24.1,12.3,24.3,12.2"/>
<path id="XMLID_13_" class="st0" d="M37.2,14.9c0.3,0.1,0.4,0.2,0.4,0.5c-0.1,0.5-0.1,0.9-0.1,1.3v2.8c-0.1,0.2-0.3,0.3-0.6,0.4
	c-0.3,0-0.4-0.1-0.4-0.3v-1.6h-1.6c-0.2,0.6-0.5,1.1-1,1.5c-0.5,0.3-0.9,0.5-1.4,0.4c-0.5-0.2-0.8-0.4-0.8-0.6
	c0-0.1,0.1-0.1,0.4-0.2c1.4-0.3,2.1-1.1,2-2.4c0-0.4-0.1-0.8-0.2-1.2c-0.1-0.4,0.1-0.6,0.5-0.6c0.1,0.1,0.3,0.1,0.6,0.2h1.4
	C36.6,14.9,36.9,14.9,37.2,14.9 M35.9,13.7c-0.3-0.3-0.5-0.6-0.6-0.7c-0.2-0.3,0-0.5,0.6-0.7c0.2-0.1,0.4,0,0.5,0.1
	c0.1,0.4,0.2,0.8,0.4,1.3c0.5,0,1.1,0,1.9-0.1c0.2-0.5,0.4-0.9,0.5-1.2c0.2-0.1,0.4-0.2,0.6-0.1c0.2,0.1,0.3,0.2,0.4,0.4
	c0,0.3-0.2,0.6-0.7,0.9c0.6,0.1,1.2,0.1,1.8,0.1c1.7,0.1,2.6,0.2,2.6,0.3c-0.1,0.1-0.2,0.3-0.5,0.6c-0.5,0.4-0.9,0.5-1.2,0.4
	c-1.1-0.4-2.4-0.6-4.1-0.7c-3,0.1-5,0.3-6,0.6c-0.3,0.1-0.4,0-0.3-0.2c0.2-0.5,0.5-0.9,0.9-1.1C33.4,13.6,34.5,13.7,35.9,13.7
	 M35,17.3h1.5v-0.6h-1.4L35,17.3z M35.1,16.2h1.4v-0.4c0-0.1,0-0.1-0.1-0.2h-1.1C35.1,15.6,35.1,15.8,35.1,16.2 M40.6,16.9
	c0-0.7-0.1-1.1-0.2-1.4c0-0.3,0.1-0.5,0.4-0.5c0.6,0,0.9,0.2,0.9,0.6c-0.1,0.1-0.1,0.2-0.1,0.5v2c0.1,0.3,0.1,0.6,0.1,0.8
	c-0.1,0.4-0.2,0.7-0.4,0.9c-0.4,0.3-0.8,0.4-1.1,0.3c-1.1-0.2-1.7-0.6-2-1.3c0-0.1,0.4,0,1.1,0.3c0.4,0.1,0.7,0,1-0.3
	c0.3-0.2,0.4-0.5,0.3-0.9V16.9z M38.5,16.6c0-0.4,0-0.7-0.1-1c0-0.2,0.2-0.3,0.5-0.3c0.3,0.1,0.5,0.2,0.5,0.5v1.7
	c0,0.5-0.2,0.7-0.7,0.7C38.6,18.1,38.5,17.5,38.5,16.6"/>
<path id="XMLID_6_" class="st0" d="M44.6,15.4c0.3-0.2,0.8-0.2,1.3,0.1c0.3,0.1,0.7,0.3,1.1,0.5c0.6,0.2,0.9,0.3,0.9,0.4
	c0,0.1,0,0.1-0.1,0.2c-0.9,0.2-1.9,0.1-3.1-0.2C44.3,16.1,44.3,15.8,44.6,15.4 M48.3,17.2c0.3-0.1,0.4,0,0.3,0.3
	c-0.2,0.3-0.4,0.6-0.7,0.9c-0.6,0.5-1.2,0.9-1.7,1.1c-0.4,0-0.7-0.1-0.8-0.3c-0.2-0.3-0.1-0.5,0.2-0.8
	C46.6,18.1,47.5,17.7,48.3,17.2 M46.5,13c0.5,0.3,0.9,0.5,1.4,0.8c0.6,0.3,0.8,0.5,0.7,0.7c-0.9,0.1-1.9-0.1-2.8-0.5
	c-0.5-0.1-0.5-0.4-0.2-0.9C45.9,12.9,46.2,12.8,46.5,13 M50.9,12.7c0.4,0.1,0.8,0.2,1.1,0.1c0.8-0.3,1.2-0.1,1.1,0.4
	c-0.1,0.3-0.1,0.5-0.2,0.8c-0.1,0.5,0,0.9,0.3,1c0.7,0.3,1.3,0.4,2,0.1c0.3-0.1,0.8-0.3,1.3-0.5c-0.3,1.3-0.7,2-1.4,2
	c-0.5,0-1.2-0.1-1.9-0.4c-0.8-0.3-1.2-0.7-1.2-1.3c0.1-0.6,0.1-1,0-1.1c0-0.3-0.2-0.4-0.7-0.4c-0.4,0-0.6,0.2-0.5,0.6
	c-0.1,0.5-0.2,1.1-0.3,1.6c-0.3,0.5-0.7,0.8-1.3,0.9c-0.5,0.1-0.9-0.1-1.1-0.5c-0.1-0.2,0-0.3,0.3-0.4c0.9-0.1,1.4-0.5,1.5-1.2
	c0.1-0.4,0-0.8-0.1-1.1C49.7,12.6,50.1,12.4,50.9,12.7 M50.4,16.7c0.2,0.1,0.7,0.1,1.4,0.1c0.5,0,0.9,0,1.2-0.1
	c1-0.2,1.4,0.1,1.3,0.8c-0.1,0.6-0.1,1.3-0.2,2c-0.1,0.5-0.5,0.7-1.2,0.5c-0.7-0.3-1.5-0.3-2.3,0c-0.7,0.2-1.1,0-1.1-0.6
	c-0.1-0.7-0.1-1.3-0.2-2C49.2,16.8,49.6,16.5,50.4,16.7 M52.6,17.4h-1.9c-0.3,0-0.5,0.4-0.4,1.1c0.1,0.3,0.2,0.5,0.5,0.4h1.7
	c0.3,0.1,0.4,0,0.5-0.3v-0.9C53,17.6,52.9,17.5,52.6,17.4"/>
<path id="XMLID_5_" class="st1" d="M15.7,9.3h-5.1V9c0.8-0.1,1-0.3,1-1V4.7c0-0.8-0.1-0.9-0.8-1.1V3.3h4.6l0.2,1.4l-0.2,0.1
	c-0.4-0.8-0.7-1-1.6-1l-1.1,0V6l0.9,0c0.6,0,0.8-0.2,1-0.9h0.3v2.2h-0.3c-0.2-0.7-0.4-0.8-1-0.9l-0.9,0V8c0,0.7,0.1,0.8,1.2,0.8
	c1,0,1.3-0.2,1.9-1.2L16,7.8L15.7,9.3z"/>
<path id="XMLID_4_" class="st1" d="M25.9,9.3V9c0.4-0.1,0.6-0.2,0.6-0.7V8.3l-0.4-3.8l-2.2,5.1l-2.2-5l-0.3,3c0,0.2,0,0.5,0,0.6
	c0,0.6,0.2,0.8,0.9,0.9v0.3h-2.6V9c0.7-0.2,0.9-0.4,1-0.9L21.2,5c0.1-0.4,0.1-0.7,0.1-0.9c0-0.4-0.3-0.6-0.8-0.6V3.3h1.8l1.9,4.3
	L26,3.3h1.8v0.2c-0.6,0-0.8,0.2-0.8,0.6c0,0.1,0,0.1,0,0.2l0.4,4c0,0.4,0.2,0.5,0.7,0.6v0.3H25.9z"/>
<path id="XMLID_3_" class="st1" d="M15.8,11.3c1.3-0.6,1.8-1.5,1.8-2.5l0-4.2c0-0.7-0.2-0.9-1.1-1V3.3h3.1v0.3
	c-0.7,0.1-0.9,0.3-1,0.9l-0.1,3.9c0,1.8-1,2.8-2.6,3L15.8,11.3z"/>
<path id="XMLID_2_" class="st1" d="M10.2,3.3C9,0.9,6.1-0.2,3.5,0.8C0.7,1.9-0.7,5,0.4,7.8c1.1,2.8,4.2,4.2,7,3.1c0,0,0,0,0,0v-0.2
	c-2.5,0.9-5.3-0.3-6.3-2.8C0.2,5.3,1.4,2.5,4,1.5c2.2-0.8,4.5,0,5.8,1.8H7.4v0.3c0.8,0.1,1,0.3,1.1,1L8.6,8L4.6,3.3H3v0.3
	c0.9,0.3,1,0.5,1,1.5l-0.1,3c0,0.7-0.2,0.9-1.1,1v0.2h3V9c-0.9,0-1.1-0.3-1.1-1L4.6,4.6l4.1,4.9l0.4-0.3l0.2-4.5c0-0.7,0.2-0.9,1-1
	L10.2,3.3L10.2,3.3z"/>
</svg>
